<svg viewBox="0 0 187 37" fill="none" xmlns="http://www.w3.org/2000/svg">
<g clip-path="url(#clip0)">
<path fill-rule="evenodd" clip-rule="evenodd" d="M63.3515 18.6471C63.3515 24.5964 59.237 28.738 53.3438 28.738C48.2025 28.738 43.3939 25.4027 43.3939 18.6471C43.3939 11.9205 48.3688 8.52917 53.4287 8.52917C58.4037 8.52917 63.3515 11.9205 63.3515 18.6471ZM58.2645 18.6471C58.2645 15.1726 55.8457 13.3667 53.4287 13.3667C50.8979 13.3667 48.4791 15.0895 48.4791 18.6471C48.4791 22.1216 50.8708 23.9294 53.3727 23.9294C55.7915 23.9294 58.2645 22.1216 58.2645 18.6471ZM71.6888 23.7902H78.7227V28.3493H66.6018V8.89072H71.6888V23.7902ZM89.4879 23.8173H91.9609V28.3764H81.9279V23.8173H84.4009V13.477H82.1502V8.91784H91.7385V13.477H89.4879V23.8173ZM112.88 8.86361H114.688V28.3764H109.601V19.3974L105.459 23.7341H104.875L100.734 19.3974V28.3764H95.6469V8.86361H97.4528L105.181 17.2859L112.88 8.86361ZM133.917 16.2013C133.917 19.7589 131.554 23.3184 126.939 23.3184H123.437V28.3493H118.35V8.89072C121.241 8.89072 124.048 8.86361 126.939 8.89072C131.61 8.89072 134 12.5315 133.917 16.2013ZM129.052 16.0621C129.052 14.6719 128.329 13.3107 126.939 13.3107H123.354V18.8984H126.939C128.275 18.8984 129.052 17.4793 129.052 16.0621ZM152.538 22.344C152.538 25.6811 150.371 28.2662 146.369 28.2662H137.001V8.83468H145.589C149.203 8.83468 151.732 11.1974 151.732 14.8111C151.732 16.0078 151.094 17.3962 150.12 18.1753C151.705 18.9816 152.538 20.5652 152.538 22.344ZM142.088 16.5068H145.228C146.201 16.5068 146.701 15.7565 146.73 14.9792C146.757 14.1169 146.257 13.2546 145.228 13.2546H142.088V16.5068ZM147.508 22.344C147.535 21.7601 147.285 21.1491 146.813 20.8164C146.562 20.7044 146.313 20.6212 145.978 20.6212H142.088V23.8462H146.007C146.98 23.8462 147.424 23.1231 147.508 22.344ZM161.06 23.7341H168.371V28.3764H155.973V8.91784H168.121V13.3378H161.06V16.1181H167.564V20.5652H161.06V23.7341ZM185.835 8.91784V13.3667H181.083V28.3764H176.162V13.3667H171.381V8.91784H185.835Z" fill="white"/>
<path d="M19.2333 1.52234C9.82576 1.52234 2.20068 9.14742 2.20068 18.5531C2.20068 27.9606 9.82576 35.5857 19.2333 35.5857C28.639 35.5857 36.2641 27.9606 36.2641 18.5531C36.2641 9.14742 28.639 1.52234 19.2333 1.52234Z" fill="#751615"/>
<path fill-rule="evenodd" clip-rule="evenodd" d="M25.02 9.80002C25.1953 9.80002 25.3598 9.80905 25.5153 9.82532C25.5804 9.95367 25.6527 10.0766 25.734 10.1887C26.1136 10.7256 26.6307 11.0636 27.2724 11.201C26.2619 11.2715 25.5117 10.9262 25.02 9.80002ZM20.8802 8.12062C22.7693 7.54214 24.4397 7.63072 25.1483 8.66113C25.1989 8.9793 25.2803 9.27758 25.3906 9.54874C23.6262 10.1109 22.0408 9.75844 20.8802 8.12062ZM21.3954 5.91517C23.1815 5.91336 24.4288 6.36168 25.1067 7.21313C25.0796 7.52045 25.0724 7.82053 25.0887 8.10616C24.9965 8.02481 24.9007 7.94527 24.7922 7.87838C24.2354 7.52768 23.4725 7.38487 22.5687 7.45175C22.1149 7.0902 21.7226 6.58765 21.3954 5.91517ZM25.5334 6.54426C27.3791 7.929 28.198 9.30289 27.5815 10.7509C27.7822 10.9516 27.9937 11.1414 28.1962 11.3041C28.2721 11.5481 28.3553 11.7777 28.4547 11.9928C28.0805 11.6819 27.6448 11.2806 27.2688 10.863C25.6165 10.4544 25.1555 8.49482 25.5334 6.54426ZM26.6596 11.7036C27.4261 11.8482 28.1383 12.1013 28.7078 12.4646C28.9807 12.9093 29.3405 13.3143 29.8394 13.7427C29.9497 14.0103 30.0093 14.3031 30.013 14.6213C29.9551 14.8888 29.928 15.1419 29.9244 15.3841C29.8828 15.3245 29.8394 15.263 29.7834 15.2016C28.2522 15.1853 26.8675 13.8223 26.6596 11.7036ZM28.0678 9.0968C30.4703 9.99525 31.0126 11.6222 30.6637 12.9997C30.4685 13.3414 30.3149 13.665 30.2028 13.9723C30.1883 13.8512 30.1829 13.7283 30.1883 13.6053C28.7385 12.4176 28.4637 11.5246 28.0678 9.0968ZM31.4809 12.3507C32.4878 14.4586 32.4155 16.4417 31.1175 17.3763C30.9385 17.0852 30.7126 16.7996 30.4414 16.5122C30.0328 15.3606 30.2028 14.1006 31.4809 12.3507ZM31.141 18.1301C30.7813 18.9671 30.6511 19.8294 30.7487 20.7369C29.2374 19.5347 28.9825 18.7429 28.668 15.4474C30.0202 16.4037 30.7957 17.2479 31.141 18.1301ZM31.6472 22.2084C31.4664 22.3693 31.2621 22.5031 31.0542 22.6404C30.8662 22.7634 30.6728 22.8917 30.4884 23.0454C30.1558 23.2027 29.8412 23.3834 29.5484 23.5823C30.0618 22.9803 30.6656 21.9662 30.7776 20.9448C30.821 21.2413 30.8861 21.5413 30.9765 21.8487C30.9078 22.0529 30.821 22.2536 30.7252 22.4488C30.7614 22.4289 30.7957 22.4109 30.8319 22.3928C31.0054 22.3042 31.1826 22.2138 31.3814 22.0439C30.8337 20.435 30.7921 18.5513 32.5962 16.4833C33.8255 19.2184 32.8565 21.8613 31.6472 22.2084ZM28.5324 24.0414C28.6481 23.8426 28.7566 23.6239 28.847 23.3907C27.9612 22.6314 27.5653 20.7062 28.4673 18.6688C29.6839 20.6266 30.0075 22.1035 29.2718 23.2388C29.2085 23.4973 29.1217 23.7468 29.0187 23.9818C28.8524 24.1192 28.6969 24.2656 28.5505 24.4138C28.5505 24.2927 28.5433 24.168 28.5324 24.0414ZM32.1515 22.8411C30.8807 26.5741 29.9244 27.4617 27.7876 27.064C27.54 27.1291 27.2905 27.252 27.0519 27.4328C26.8132 27.4147 26.5909 27.431 26.383 27.4834C26.5584 27.2954 26.7283 27.0965 26.8819 26.8941C26.2528 25.1858 26.3993 23.7197 27.8744 22.3295C28.2088 23.2243 28.3372 24.0125 28.292 24.6904C27.6575 25.419 27.2778 26.218 27.2471 26.9248C27.352 26.885 27.4622 26.8543 27.5797 26.8362C27.7244 25.3828 29.5321 23.3437 32.1515 22.8411ZM28.677 28.3656C27.3339 30.1534 26.0992 30.3053 24.7813 29.2496C25.7991 27.7998 26.6505 27.1924 28.677 28.3656ZM26.2962 25.3593C26.148 26.3029 25.9112 27.1562 25.5858 27.8721C25.2206 28.1468 24.8862 28.5355 24.5481 29.0109C24.0781 28.7 23.572 28.5192 23.0495 28.474C23.5231 27.0062 24.6096 25.8709 26.2962 25.3593ZM25.3598 30.2366C23.5991 31.041 21.813 30.8693 20.8296 29.772C20.5241 29.9618 20.2132 30.2095 19.8914 30.4752C19.7359 30.3921 19.5895 30.3089 19.4521 30.2239C19.5786 30.1426 19.7016 30.0612 19.8173 29.9835C20.2547 29.6925 20.6289 29.4466 21.0176 29.34C22.5108 28.4072 24.1107 28.597 25.3598 30.2366ZM18.6802 30.891C18.7941 30.9868 18.9116 31.0826 19.0291 31.1784C18.4307 31.6466 17.7763 32.0805 17.0586 32.2613L17.0189 32.2721L16.021 31.4442L16.2108 31.4225C17.1725 31.3068 17.9119 31.0519 18.5193 30.7572C18.5735 30.8006 18.626 30.8458 18.6802 30.891Z" fill="#FFBE53"/>
<path fill-rule="evenodd" clip-rule="evenodd" d="M6.81952 17.0346C5.93373 16.0024 5.98254 14.2452 6.86833 12.3869C7.31304 12.9979 7.62216 13.5475 7.82101 14.0536C7.7469 14.7623 7.51008 15.2919 7.29315 15.7782C7.19915 15.9879 7.11057 16.185 7.03645 16.391C6.95149 16.6206 6.88099 16.8358 6.81952 17.0346ZM13.3581 29.5316C12.0548 30.2474 10.3049 29.7413 9.5908 28.0329C10.3139 27.6804 10.9141 27.5503 11.4311 27.5918L11.5179 27.7021C11.921 28.2011 12.6115 28.9079 13.0111 29.2315C13.1412 29.3363 13.2876 29.4538 13.3166 29.4864L13.3581 29.5316ZM11.187 11.248C11.8523 11.1178 12.3892 10.7762 12.7797 10.2248C12.8339 10.1489 12.8845 10.0675 12.9315 9.98439C13.313 9.95004 13.7432 9.97716 14.2204 10.073C13.3636 11.3113 12.3802 11.5589 11.187 11.248ZM13.0996 9.64634C13.1828 9.4511 13.2497 9.24321 13.3021 9.02267C14.6109 8.97928 15.6305 8.634 16.4205 7.93802C16.7007 7.99406 16.9863 8.06818 17.2792 8.15676C16.5434 9.1944 15.6395 9.71684 14.6272 9.81808L14.2855 9.74938C13.8372 9.6608 13.4467 9.63188 13.0996 9.64634ZM13.3672 8.69185C13.4305 8.30138 13.4485 7.88017 13.4214 7.43908C14.159 6.51351 15.5057 5.98204 17.4364 5.89526C16.5904 7.86029 15.2237 8.61412 13.3672 8.69185ZM10.9321 10.787C10.3157 9.33902 11.1346 7.96513 12.9803 6.58221C13.3581 8.53277 12.8972 10.4906 11.2449 10.8991C10.9105 11.2697 10.5308 11.6276 10.1892 11.9205C10.1566 11.9349 10.1241 11.9494 10.0952 11.9639C10.1801 11.7668 10.2579 11.5589 10.3247 11.333C10.5272 11.1721 10.7351 10.9859 10.9321 10.787ZM8.09218 13.6975C7.37269 12.2188 7.64386 10.1814 10.4459 9.13294C10.2054 10.6063 10.0102 11.5137 9.56911 12.2658C9.17863 12.5261 8.86047 12.828 8.63089 13.1696C8.54231 13.2998 8.46819 13.4354 8.40492 13.5764L8.40311 13.5782C8.42119 14.2977 8.17714 15.084 7.9114 15.8993C8.03071 15.7529 8.13737 15.6011 8.24041 15.4528C8.33261 15.3172 8.42661 15.1853 8.52604 15.0587C8.27114 13.1986 9.88366 12.1103 11.8541 11.7397C11.6444 13.8729 10.2434 15.2395 8.69777 15.2377C8.50073 15.4402 8.36334 15.6372 8.22957 15.8415C8.07048 16.0837 7.81559 16.3675 7.63482 16.7707C7.49201 17.257 7.39258 17.6908 7.32208 18.0506C7.22084 17.8318 7.10695 17.6131 6.97499 17.3962C7.04911 17.1214 7.14673 16.8104 7.27327 16.4634C7.34558 16.2645 7.43235 16.0693 7.52635 15.8632C7.78848 15.2775 8.07591 14.6321 8.09218 13.6975ZM7.77763 20.6121C7.84632 19.7372 7.70532 18.9038 7.34377 18.0939C7.67278 17.1828 8.45373 16.3169 9.84569 15.3317C9.53295 18.6182 9.27806 19.4136 7.77763 20.6121ZM5.91746 16.5212C7.72159 18.5875 7.68001 20.4711 7.13226 22.08C7.33112 22.25 7.50827 22.3403 7.68182 22.4307C7.76859 22.4741 7.85717 22.5193 7.94756 22.5753C7.80113 22.3024 7.67278 22.0204 7.57697 21.7402C7.66916 21.4021 7.73424 21.0695 7.76859 20.7441C7.82644 21.3515 8.08133 21.9878 8.39949 22.5609C8.4718 22.7923 8.57304 23.0182 8.70139 23.2442C8.28922 22.9803 7.83186 22.7597 7.33473 22.5952C7.17203 22.4868 7.01295 22.3747 6.86833 22.2463C5.65895 21.9011 4.68638 19.2563 5.91746 16.5212ZM9.71553 23.5479C9.824 23.8046 9.95235 24.0414 10.0861 24.2529C10.0807 24.3072 10.0717 24.3614 10.068 24.4138C9.86377 24.1806 9.63599 23.9547 9.38472 23.745C9.36483 23.6907 9.34675 23.6347 9.32868 23.5786C8.35792 22.3566 8.10483 20.7839 10.0753 18.5712C11.4528 20.67 10.6917 22.7164 9.71553 23.5479ZM6.10366 22.6549C7.87163 22.8664 9.23648 23.8281 10.0572 24.8965C10.0843 25.8058 10.4043 26.5741 11.0135 27.158C10.9394 27.1309 10.8635 27.1074 10.7893 27.0875C8.48084 27.5467 7.46308 26.6374 6.10366 22.6549ZM10.8815 22.5464C12.2337 23.9004 12.4018 25.287 11.8433 26.8579C12.0493 27.1453 12.288 27.4273 12.5374 27.6931C12.6585 28.0817 12.805 28.427 12.9731 28.7398C12.5049 28.3312 11.9354 27.7799 11.5359 27.167C10.3609 26.2885 9.99393 24.7157 10.8815 22.5464ZM13.7197 29.2152C12.9767 28.3421 12.5429 26.9935 12.5049 25.3231C14.1047 25.9197 15.1044 27.0622 15.5166 28.4903C14.8839 28.5319 14.2765 28.7741 13.7197 29.2152ZM22.4927 31.4803L21.4948 32.3083L21.4532 32.2992C20.4554 32.0443 19.5424 31.3068 18.738 30.6542C18.3656 30.3541 18.0059 30.0648 17.6588 29.8371C16.6717 30.9091 14.8983 31.07 13.1539 30.2727C14.4482 28.5753 16.1186 28.4306 17.657 29.4809C17.9914 29.6256 18.3114 29.8298 18.6567 30.054C19.4756 30.5819 20.4951 31.2417 22.3029 31.4586L22.4927 31.4803Z" fill="#FFBE53"/>
<path fill-rule="evenodd" clip-rule="evenodd" d="M37.168 18.5531C37.168 28.4595 29.138 36.4895 19.2333 36.4895C9.32689 36.4895 1.29688 28.4595 1.29688 18.5531C1.29688 8.64842 9.32689 0.618408 19.2333 0.618408C29.138 0.618408 37.168 8.64842 37.168 18.5531ZM35.2283 18.5531C35.2283 9.72042 28.066 2.55812 19.2333 2.55812C10.3989 2.55812 3.23659 9.72042 3.23659 18.5531C3.23659 27.3875 10.3989 34.5498 19.2333 34.5498C28.066 34.5498 35.2283 27.3875 35.2283 18.5531Z" fill="#FFBE53"/>
</g>
<defs>
<clipPath id="clip0">
<rect width="185.475" height="36.5165" fill="white" transform="translate(0.962402 0.307495)"/>
</clipPath>
</defs>
</svg>
