<svg viewBox="0 0 219 61" fill="none" xmlns="http://www.w3.org/2000/svg">
<g filter="url(#filter0_d)">
<g filter="url(#filter1_dd)">
<path fill-rule="evenodd" clip-rule="evenodd" d="M82.7477 35.1017L82.7612 35.0503L82.7613 35.0499C85.3502 25.2002 85.5447 24.4604 85.5436 21.8215C85.5409 15.0589 80.914 11.6793 71.6631 11.6826L36.223 11.6955C24.7571 11.6996 17.5931 16.9278 14.796 27.3801C12.194 37.0331 11.9991 38.3242 12 40.5375C12.0028 47.3615 16.6296 50.7411 25.9457 50.7378L36.7601 50.7338L50.8319 50.7287L61.3857 50.7249C72.7865 50.7208 79.9506 45.4925 82.7477 35.1017ZM61.4836 20.937L58.5311 18.4514C56.3024 17.5696 55.1606 17.5367 53.5197 17.4895C53.2525 17.4818 52.9721 17.4738 52.6715 17.4616C52.6715 16.936 51.4488 16.1479 50.5139 17.6376L48.3563 17.8135C47.5563 17.9544 46.9226 17.7316 46.4706 17.5726C45.9344 17.3841 45.6537 17.2854 45.6537 17.9895L45.6314 18.0199C45.1372 18.693 45.0184 18.8548 45.7445 19.3092C47.5627 19.8792 48.1334 20.4981 47.6069 21.5309C47.3862 22.0223 47.1325 22.2615 46.9356 22.4471C46.7271 22.6436 46.5822 22.7802 46.6076 23.0927C46.9051 23.4874 47.2029 23.4497 47.8794 23.0927L50.2414 22.4328C51.3778 22.3069 51.6722 22.5264 51.9902 23.0927C52.8278 23.4791 53.2643 23.7357 53.8979 24.3685C53.3393 25.0012 53.0096 25.5957 52.6949 26.1632C52.3172 26.8443 51.9611 27.4865 51.2565 28.109C50.1398 28.2185 49.0822 28.315 47.4016 28.4666C46.739 27.7752 46.2467 27.4316 45.3132 26.838L42.9265 26.4703L45.3675 26.7854L45.5844 24.8679L45.4488 26.7854C46.1977 27.1942 46.5461 27.5108 47.0004 27.9235L47.0005 27.9237L47.0008 27.9239C47.1234 28.0353 47.2536 28.1537 47.4016 28.2827L51.7938 27.0577L52.282 26.7066C52.9146 25.613 53.2442 25.1154 53.8008 24.3688L53.5567 24.0798C50.8192 24.461 49.379 24.3871 47.1638 24.2734C46.9357 24.2617 46.6992 24.2496 46.4523 24.2375C46.2781 23.3734 45.9755 22.7839 45.1505 21.5844C45.3309 20.7697 44.8843 20.2214 44.192 19.3713C44.125 19.289 44.0556 19.2038 43.9842 19.1153C43.3867 16.9448 41.4257 17.1518 41.9501 18.301L38.6955 19.7457C37.4193 19.1153 36.47 21.5056 38.6955 21.5056C38.2953 22.6149 38.1145 23.2177 38.6955 23.896L37.0953 25.9712C26.0731 28.0648 25.6206 30.0926 24.5323 34.9692C24.0914 36.9451 23.5461 39.3886 22.1512 42.4936C21.9389 44.0563 22.0903 44.7291 23.1276 45.3568C25.9373 46.8547 25.9498 46.3484 25.9698 45.539C25.9712 45.4797 25.9727 45.4188 25.9754 45.3568L25.1346 44.5425C24.5296 43.0843 25.206 41.9903 26.9518 39.8931C28.2849 38.932 28.8175 38.2812 29.5922 37.3345L29.5922 37.3345L29.5923 37.3344L29.5923 37.3344C29.9758 36.8658 30.4186 36.3248 31.0472 35.6377C31.98 34.4186 33.6486 34.494 35.6729 34.5855C38.5337 34.7147 42.1048 34.8761 45.3132 31.4611C43.5653 31.0276 42.5469 30.5324 40.7318 29.6497L40.7296 29.6487C43.2797 30.715 44.646 31.1878 46.9405 31.7501C47.2289 31.3571 47.74 31.2409 48.3946 31.1821L48.3563 31.2247C45.9626 32.6169 48.051 35.7428 51.4905 31.9132L51.7192 31.7897C53.4643 30.8478 54.3334 30.3787 55.7603 28.9217L56.7142 29.6476L58.0996 28.7017L56.8277 29.7356L55.3288 30.4834L54.1932 31.6713C51.9902 32.6391 53.9888 34.9267 56.0555 33.431C56.6309 32.969 58.2388 32.1557 58.3267 32.1332C60.4386 31.5925 61.6591 30.7782 61.9845 29.2809C61.7739 30.4277 61.4419 31.0642 58.974 32.1332C59.9656 34.9017 61.482 35.7356 63.0332 36.5887C65.0352 37.6897 67.0953 38.8226 68.1607 44.1872C67.0654 44.5852 66.5642 44.8609 66.0486 45.529C67.0829 46.5185 68.0797 46.336 69.6237 46.0534C69.7742 46.0259 69.9298 45.9974 70.0912 45.9689C70.7491 45.4799 70.9804 45.1062 71.0451 44.1872C73.7554 31.2247 69.3074 23.502 61.4836 20.937ZM32.4512 38.5997C31.8552 38.8987 31.327 39.1637 31.671 40.3397C33.1084 42.4936 35.9966 44.2001 36.0104 42.4936L34.9256 41.1014C34.2585 40.355 34.4931 40.0199 36.9326 38.8687C38.6413 38.2382 39.5092 36.0054 38.4514 34.8497C37.8406 34.8497 37.1884 34.8217 36.5346 34.7936H36.5346H36.5346H36.5345H36.5345H36.5345C34.2857 34.6971 32.0179 34.5998 31.3455 35.6377C31.4583 35.6889 31.5672 35.7378 31.6723 35.7849L31.6729 35.7852C32.6789 36.2366 33.3344 36.5307 33.6237 37.1875C33.5117 38.0678 32.957 38.346 32.4512 38.5997ZM61.1692 42.677C62.1833 41.9495 61.9323 41.4273 61.649 40.8379C61.4086 40.3377 61.145 39.7893 61.6115 39.0261C62.3223 38.6408 63.9173 37.8147 65.0293 38.1595C64.8074 37.791 64.0996 37.3867 63.2637 36.9091L63.2637 36.9091L63.2636 36.9091C61.9542 36.161 60.3304 35.2334 59.7676 33.9828C58.2012 34.272 56.9764 36.8891 57.9315 38.3992C59.1366 40.754 59.111 41.1582 58.112 41.3544L56.375 41.8147C55.3095 43.1738 58.6725 43.5318 61.1692 42.677Z" fill="#FF153E"/>
</g>
</g>
<g filter="url(#filter2_d)">
<path d="M100.336 21.0864C100.717 19.5505 100.745 19.436 100.745 19.0258C100.744 17.9765 100.067 17.452 98.7121 17.4523L93.5226 17.4537C91.8436 17.4541 90.7947 18.2652 90.3855 19.8871C90.0047 21.3849 89.9762 21.5852 89.9764 21.9286C89.977 22.9875 90.6546 23.512 92.0188 23.5117L93.6023 23.5112L93.2121 25.0854L95.2726 25.0848L95.6629 23.5107L97.2083 23.5103C98.8777 23.5099 99.9266 22.6987 100.336 21.0864ZM98.1885 19.4653C98.4652 19.4652 98.5797 19.532 98.5798 19.7323C98.5798 19.7991 98.5704 19.8849 98.3419 20.7531C98.2182 21.2396 97.789 21.4973 97.2644 21.4974L96.1578 21.4977L96.6622 19.4657L98.1885 19.4653ZM94.6017 19.4662L94.0972 21.4983L92.5232 21.4987C92.2466 21.4988 92.1416 21.4129 92.1415 21.2317C92.1415 21.1744 92.1414 21.06 92.3699 20.23C92.4841 19.7816 92.9036 19.4667 93.4665 19.4665L94.6017 19.4662Z" fill="#333333"/>
<path d="M111.68 17.4489L104.297 17.4509C102.942 17.4512 102.113 18.0715 101.808 19.3117L100.837 23.2136C100.78 23.4426 100.752 23.6525 100.752 23.8433C100.752 24.6732 101.306 25.0832 102.403 25.083L109.815 25.081L110.3 23.1158L103.193 23.1176C103.031 23.1177 102.974 23.0986 102.974 22.9937C102.974 22.965 102.993 22.8983 103.164 22.1637L110.462 22.1618L110.919 20.3301L103.621 20.332L103.735 19.874C103.802 19.6165 103.993 19.4161 104.307 19.416L111.195 19.4142L111.68 17.4489Z" fill="#333333"/>
<path d="M120.32 18.0954C120.196 17.628 120.024 17.4468 119.499 17.4469L117.849 17.4473C117.353 17.4475 117.009 17.6193 116.666 18.0868L112.005 24.2982L110.622 24.2986L109.975 26.9317L111.568 26.9312L111.729 26.292L121.174 26.2896L121.012 26.9288L122.633 26.9284L123.29 24.2953L121.897 24.2956L120.32 18.0954ZM118.48 19.5172C118.623 19.5172 118.651 19.5458 118.68 19.6889L119.741 24.2962L114.466 24.2976L117.802 19.7654C117.926 19.6032 118.069 19.5173 118.232 19.5173L118.48 19.5172Z" fill="#333333"/>
<path d="M135.06 17.4428L127.676 17.4448C126.321 17.4451 125.492 18.0654 125.187 19.3056L124.216 23.2075C124.159 23.4365 124.131 23.6464 124.131 23.8372C124.131 24.6671 124.685 25.0772 125.782 25.0769L133.194 25.0749L133.68 23.1097L126.573 23.1115C126.41 23.1116 126.353 23.0925 126.353 22.9876C126.353 22.9589 126.372 22.8922 126.543 22.1576L133.841 22.1557L134.298 20.324L127 20.3259L127.115 19.8679C127.181 19.6104 127.372 19.41 127.687 19.4099L134.574 19.4081L135.06 17.4428Z" fill="#333333"/>
<path d="M144.34 20.7411C144.778 19.0811 144.778 18.9857 144.777 18.6614C144.777 17.8505 144.233 17.4404 143.136 17.4407L136.058 17.4426L134.164 25.0747L136.224 25.0741L136.833 22.6033L141.851 22.6019C143.215 22.6016 144.007 21.9909 144.34 20.7411ZM142.374 19.5015C142.498 19.5014 142.555 19.511 142.555 19.5968C142.555 19.635 142.565 19.7017 142.413 20.1883C142.365 20.3696 142.174 20.5413 141.859 20.5414L137.347 20.5426L137.604 19.5027L142.374 19.5015Z" fill="#333333"/>
<path d="M151.322 18.0873C151.198 17.6008 150.978 17.4387 150.473 17.4388L148.775 17.4393C148.212 17.4394 147.945 17.6207 147.611 18.0882L142.369 25.0725L144.858 25.0719L145.85 23.7075L150.6 23.7062L150.925 25.0703L153.1 25.0697L151.322 18.0873ZM149.51 19.5091C149.625 19.5091 149.654 19.5282 149.682 19.6331L150.18 21.7603L147.232 21.7611L148.681 19.7765C148.814 19.5952 148.967 19.5093 149.148 19.5092L149.51 19.5091Z" fill="#333333"/>
<path d="M165.424 17.4349L163.364 17.4355L161.984 22.9974L156.289 22.9988L157.669 17.4369L155.608 17.4375L153.714 25.0696L163.311 25.0671L162.844 26.9179L164.609 26.9174L165.59 22.9964L164.044 22.9968L165.424 17.4349Z" fill="#333333"/>
<path d="M177.229 17.4318L174.873 17.4325C173.719 17.4328 173.042 17.9194 172.298 18.7973L169.047 22.7093C168.895 22.9002 168.714 23.0051 168.437 23.0052L168.294 23.0052L169.683 17.4338L167.661 17.4343L165.767 25.0664L167.637 25.066C169.134 25.0656 169.85 24.7792 170.765 23.6819L174.025 19.7126C174.149 19.56 174.283 19.4931 174.559 19.4931L174.702 19.493L173.322 25.0645L175.335 25.0639L177.229 17.4318Z" fill="#333333"/>
<path d="M188.144 17.429L180.064 17.4311C178.766 17.4314 177.965 18.0517 177.661 19.2919C177.356 20.5131 177.328 20.7516 177.328 20.9614C177.328 21.7818 177.815 22.1919 178.798 22.1916L179.189 22.1915L175.956 25.0638L178.713 25.0631L181.726 22.2863L184.874 22.2855L184.189 25.0616L186.25 25.0611L188.144 17.429ZM185.588 19.4043L185.341 20.4156L179.598 20.4171C179.474 20.4171 179.417 20.3694 179.417 20.2836C179.417 20.255 179.417 20.2073 179.54 19.7398C179.607 19.5394 179.75 19.4059 180.065 19.4058L185.588 19.4043Z" fill="#333333"/>
</g>
<g filter="url(#filter3_d)">
<path d="M94.8385 37.5406L85.8237 37.543L83.9296 45.1751L91.0079 45.1732C92.3721 45.1729 93.154 44.5621 93.4872 43.3124C93.8394 41.9672 93.8488 41.8527 93.8487 41.5761C93.8482 40.7557 93.3042 40.3456 92.2072 40.3459L87.1894 40.3472L87.3988 39.5077L94.3531 39.5059L94.8385 37.5406ZM91.4927 42.1681C91.6168 42.1681 91.674 42.2063 91.6741 42.273C91.6741 42.3017 91.6836 42.3398 91.5313 42.8645C91.4646 43.0649 91.3121 43.208 90.9973 43.2081L86.4755 43.2093L86.7325 42.1694L91.4927 42.1681Z" fill="#333333"/>
<path d="M105.454 39.9704C105.53 39.6556 105.568 39.3694 105.568 39.1118C105.567 38.0625 104.89 37.538 103.535 37.5383L98.3458 37.5397C96.6573 37.5401 95.6084 38.3513 95.2086 39.9731L94.5234 42.7493C94.4472 43.0641 94.4092 43.3503 94.4094 43.5888C94.41 44.6477 95.0876 45.1722 96.4517 45.1718L101.641 45.1705C103.33 45.17 104.369 44.3589 104.769 42.7466L105.454 39.9704ZM102.955 39.599C103.26 39.599 103.374 39.6752 103.374 39.866C103.374 39.9328 103.365 39.9996 103.346 40.0854L102.794 42.2892C102.67 42.7758 102.241 43.1098 101.631 43.1099L97.0038 43.1111C96.7272 43.1112 96.5936 43.0063 96.5935 42.7964C96.5934 42.7297 96.6029 42.6533 96.6315 42.5675L97.155 40.4782C97.2978 39.9153 97.7173 39.6004 98.3279 39.6002L102.955 39.599Z" fill="#333333"/>
<path d="M115.38 40.8359C115.818 39.1759 115.818 39.0805 115.817 38.7562C115.817 37.9453 115.273 37.5353 114.176 37.5356L107.098 37.5374L105.203 45.1695L107.264 45.169L107.873 42.6981L112.891 42.6968C114.255 42.6964 115.047 42.0857 115.38 40.8359ZM113.414 39.5963C113.538 39.5963 113.595 39.6058 113.595 39.6917C113.595 39.7298 113.605 39.7966 113.452 40.2831C113.405 40.4644 113.214 40.6362 112.899 40.6362L108.387 40.6374L108.644 39.5975L113.414 39.5963Z" fill="#333333"/>
<path d="M122.799 42.0646C122.904 42.0646 122.952 42.1027 122.952 42.179C122.952 42.2267 122.942 42.284 122.818 42.7705C122.761 42.9899 122.59 43.1045 122.313 43.1045L117.763 43.1057L118.029 42.0658L122.799 42.0646ZM124.755 43.3042C125.184 41.6824 125.203 41.5393 125.202 41.234C125.202 40.4136 124.648 40.0036 123.551 40.0039L118.534 40.0052L119.152 37.5343L117.092 37.5348L115.198 45.1669L122.276 45.1651C123.64 45.1647 124.422 44.554 124.755 43.3042Z" fill="#333333"/>
<path d="M136.101 37.5299L127.086 37.5322L125.192 45.1643L132.27 45.1625C133.634 45.1621 134.416 44.5514 134.749 43.3016C135.101 41.9564 135.111 41.842 135.111 41.5653C135.11 40.7449 134.566 40.3349 133.469 40.3352L128.452 40.3365L128.661 39.4969L135.615 39.4951L136.101 37.5299ZM132.755 42.1574C132.879 42.1574 132.936 42.1955 132.936 42.2623C132.936 42.2909 132.946 42.3291 132.793 42.8538C132.727 43.0541 132.574 43.1972 132.259 43.1973L127.738 43.1985L127.995 42.1586L132.755 42.1574Z" fill="#333333"/>
<path d="M142.759 42.0594C142.883 42.0594 142.94 42.0975 142.94 42.1643C142.94 42.212 142.93 42.2501 142.807 42.7558C142.759 42.937 142.587 43.0992 142.254 43.0993L137.751 43.1005L138.017 42.0606L142.759 42.0594ZM144.743 43.299C145.153 41.6295 145.191 41.4864 145.191 41.2288C145.19 40.4084 144.637 39.9984 143.54 39.9986L138.522 40L139.14 37.5291L137.08 37.5296L135.186 45.1617L142.264 45.1599C143.609 45.1595 144.439 44.5392 144.743 43.299ZM148.909 37.5265L146.848 37.527L144.954 45.1592L147.015 45.1586L148.909 37.5265Z" fill="#333333"/>
<path d="M161.848 40.8238C162.285 39.1638 162.285 39.0684 162.285 38.7441C162.285 37.9332 161.741 37.5232 160.644 37.5235L153.565 37.5253L151.671 45.1574L153.732 45.1569L154.341 42.686L159.359 42.6847C160.723 42.6843 161.514 42.0736 161.848 40.8238ZM159.882 39.5842C160.006 39.5842 160.063 39.5937 160.063 39.6795C160.063 39.7177 160.073 39.7845 159.92 40.271C159.873 40.4523 159.682 40.624 159.367 40.6241L154.855 40.6253L155.112 39.5854L159.882 39.5842Z" fill="#333333"/>
<path d="M173.196 39.9528C173.272 39.6379 173.31 39.3517 173.31 39.0942C173.309 38.0448 172.632 37.5203 171.277 37.5207L166.088 37.522C164.399 37.5225 163.35 38.3336 162.95 39.9554L162.265 42.7316C162.189 43.0464 162.151 43.3326 162.151 43.5711C162.152 44.63 162.829 45.1545 164.193 45.1541L169.383 45.1528C171.071 45.1523 172.111 44.3412 172.511 42.7289L173.196 39.9528ZM170.696 39.5814C171.002 39.5813 171.116 39.6576 171.116 39.8484C171.116 39.9151 171.107 39.9819 171.088 40.0678L170.536 42.2716C170.412 42.7581 169.983 43.0921 169.372 43.0923L164.746 43.0935C164.469 43.0935 164.335 42.9886 164.335 42.7788C164.335 42.712 164.345 42.6357 164.373 42.5498L164.897 40.4605C165.04 39.8976 165.459 39.5827 166.07 39.5826L170.696 39.5814Z" fill="#333333"/>
<path d="M184.503 37.5172L176.862 37.5192C175.507 37.5196 174.677 38.1399 174.373 39.3801L173.402 43.282C173.345 43.511 173.316 43.7208 173.317 43.9116C173.317 44.7416 173.871 45.1516 174.968 45.1513L182.637 45.1493L183.142 43.0887L175.796 43.0906C175.644 43.0906 175.567 43.0429 175.567 42.938C175.567 42.8998 175.558 42.8617 175.586 42.7949L176.272 40.0378C176.319 39.8184 176.567 39.5798 176.863 39.5798L183.989 39.5779L184.503 37.5172Z" fill="#333333"/>
<path d="M195.224 37.5144L187.582 37.5164C186.228 37.5168 185.398 38.1371 185.094 39.3773L184.123 43.2792C184.066 43.5082 184.037 43.718 184.037 43.9088C184.038 44.7388 184.591 45.1488 185.688 45.1485L193.358 45.1465L193.863 43.0859L186.517 43.0878C186.365 43.0878 186.288 43.0401 186.288 42.9352C186.288 42.8971 186.279 42.8589 186.307 42.7921L186.992 40.035C187.04 39.8156 187.288 39.577 187.584 39.577L194.71 39.5751L195.224 37.5144Z" fill="#333333"/>
<path d="M205.849 37.5117L203.493 37.5123C202.338 37.5126 201.661 37.9993 200.918 38.8771L197.667 42.7892C197.515 42.98 197.333 43.085 197.057 43.085L196.914 43.0851L198.303 37.5136L196.281 37.5142L194.387 45.1463L196.257 45.1458C197.754 45.1454 198.47 44.859 199.385 43.7617L202.645 39.7924C202.769 39.6398 202.902 39.573 203.179 39.5729L203.322 39.5729L201.942 45.1443L203.955 45.1438L205.849 37.5117Z" fill="#333333"/>
<path d="M216.449 37.5089L214.092 37.5095C212.938 37.5098 212.261 37.9965 211.517 38.8743L208.267 42.7864C208.114 42.9772 207.933 43.0822 207.656 43.0823L207.513 43.0823L208.903 37.5109L206.881 37.5114L204.986 45.1435L206.856 45.143C208.354 45.1426 209.069 44.8563 209.984 43.759L213.245 39.7897C213.369 39.637 213.502 39.5702 213.779 39.5701L213.922 39.5701L212.542 45.1415L214.555 45.141L216.449 37.5089Z" fill="#333333"/>
</g>
<g filter="url(#filter4_d)">
<path d="M98.2893 27.2661L90.6482 27.2681C89.2936 27.2684 88.464 27.8887 88.1594 29.1289L87.1886 33.0308C87.1315 33.2598 87.103 33.4697 87.1031 33.6605C87.1036 34.4904 87.6571 34.9005 88.7541 34.9002L96.4239 34.8982L96.9283 32.8375L89.5829 32.8394C89.4303 32.8395 89.3539 32.7918 89.3539 32.6868C89.3538 32.6487 89.3443 32.6105 89.3729 32.5437L90.0581 29.7866C90.1057 29.5672 90.3536 29.3287 90.6493 29.3286L97.7754 29.3267L98.2893 27.2661Z" fill="#333333"/>
<path d="M109.163 27.2632L99.3466 27.2658L97.4525 34.8979L99.5131 34.8974L100.893 29.3355L106.588 29.334L105.208 34.8959L107.269 34.8953L109.163 27.2632Z" fill="#333333"/>
<path d="M119.825 29.693C119.901 29.3782 119.939 29.092 119.939 28.8344C119.938 27.7851 119.261 27.2606 117.906 27.261L112.716 27.2623C111.028 27.2627 109.979 28.0739 109.579 29.6957L108.894 32.4719C108.818 32.7867 108.78 33.0729 108.78 33.3114C108.781 34.3703 109.458 34.8948 110.822 34.8944L116.012 34.8931C117.7 34.8926 118.74 34.0815 119.139 32.4692L119.825 29.693ZM117.325 29.3216C117.63 29.3216 117.745 29.3978 117.745 29.5886C117.745 29.6554 117.736 29.7222 117.717 29.8081L117.165 32.0118C117.041 32.4984 116.612 32.8324 116.001 32.8325L111.375 32.8337C111.098 32.8338 110.964 32.7289 110.964 32.519C110.964 32.4523 110.974 32.3759 111.002 32.2901L111.526 30.2008C111.668 29.6379 112.088 29.323 112.699 29.3228L117.325 29.3216Z" fill="#333333"/>
<path d="M129.75 30.5585C130.188 28.8985 130.188 28.8032 130.188 28.4788C130.188 27.668 129.644 27.2579 128.547 27.2582L121.468 27.26L119.574 34.8921L121.635 34.8916L122.244 32.4207L127.262 32.4194C128.626 32.419 129.417 31.8083 129.75 30.5585ZM127.785 29.3189C127.909 29.3189 127.966 29.3284 127.966 29.4143C127.966 29.4524 127.975 29.5192 127.823 30.0057C127.775 30.187 127.585 30.3588 127.27 30.3589L122.758 30.36L123.015 29.3202L127.785 29.3189Z" fill="#333333"/>
<path d="M140.868 27.255L131.462 27.2574L130.948 29.3181L134.659 29.3171L133.279 34.8886L135.34 34.888L136.72 29.3166L140.354 29.3156L140.868 27.255Z" fill="#333333"/>
<path d="M151.462 27.2522L149.106 27.2528C147.952 27.2531 147.275 27.7398 146.531 28.6176L143.281 32.5297C143.128 32.7205 142.947 32.8255 142.67 32.8256L142.527 32.8256L143.917 27.2542L141.894 27.2547L140 34.8868L141.87 34.8863C143.368 34.8859 144.083 34.5996 144.998 33.5023L148.258 29.533C148.382 29.3803 148.516 29.3135 148.793 29.3134L148.936 29.3134L147.556 34.8848L149.568 34.8843L151.462 27.2522Z" fill="#333333"/>
<path d="M161.882 29.7965C162.111 28.8902 162.139 28.728 162.139 28.4609C162.139 27.6501 161.614 27.2496 160.574 27.2498L152.494 27.2519L150.6 34.884L158.68 34.8819C160.044 34.8816 160.826 34.2708 161.159 33.0115C161.464 31.924 161.454 31.8476 161.454 31.695C161.454 31.3707 161.311 31.1227 161.024 30.9606C161.473 30.6647 161.768 30.2831 161.882 29.7965ZM159.136 31.9055C159.27 31.9055 159.336 31.9436 159.337 32.0294C159.337 32.0581 159.327 32.0867 159.222 32.5446C159.156 32.764 158.946 32.9167 158.612 32.9168L153.146 32.9182L153.393 31.907L159.136 31.9055ZM159.764 29.2152C159.926 29.2151 160.003 29.2628 160.003 29.3487C160.003 29.3868 160.003 29.4345 159.898 29.8257C159.831 30.026 159.669 30.1692 159.364 30.1692L153.831 30.1707L154.069 29.2167L159.764 29.2152Z" fill="#333333"/>
<path d="M173.441 27.2465L171.38 27.247L170.733 29.8324L165.038 29.8339L165.685 27.2485L163.625 27.249L161.731 34.8811L163.791 34.8806L164.524 31.9041L170.219 31.9026L169.486 34.8791L171.547 34.8786L173.441 27.2465Z" fill="#333333"/>
<path d="M184.103 29.6763C184.179 29.3614 184.217 29.0752 184.217 28.8177C184.216 27.7683 183.539 27.2438 182.184 27.2442L176.995 27.2455C175.306 27.246 174.257 28.0571 173.857 29.6789L173.172 32.4551C173.096 32.7699 173.058 33.0561 173.058 33.2946C173.059 34.3535 173.736 34.878 175.1 34.8777L180.29 34.8763C181.978 34.8759 183.018 34.0647 183.418 32.4524L184.103 29.6763ZM181.603 29.3049C181.909 29.3048 182.023 29.3811 182.023 29.5719C182.023 29.6387 182.014 29.7054 181.995 29.7913L181.443 31.9951C181.319 32.4816 180.89 32.8156 180.279 32.8158L175.653 32.817C175.376 32.817 175.242 32.7121 175.242 32.5023C175.242 32.4355 175.252 32.3592 175.28 32.2733L175.804 30.184C175.947 29.6212 176.366 29.3062 176.977 29.3061L181.603 29.3049Z" fill="#333333"/>
<path d="M191.717 25.3338C191.641 25.62 191.317 26.202 190.992 26.2021L190.868 26.2021C190.611 26.2022 190.534 26.0973 190.534 25.8588C190.534 25.7157 190.553 25.5344 190.601 25.3341L189.485 25.3344C189.456 25.4775 189.437 25.6206 189.437 25.7637C189.438 26.2979 189.667 26.9465 190.43 26.9463L191.098 26.9461C192.09 26.9459 192.709 25.8964 192.833 25.3335L191.717 25.3338ZM195.314 27.2408L192.958 27.2414C191.804 27.2417 191.127 27.7284 190.383 28.6062L187.132 32.5183C186.98 32.7091 186.799 32.8141 186.522 32.8141L186.379 32.8142L187.769 27.2427L185.746 27.2433L183.852 34.8754L185.722 34.8749C187.22 34.8745 187.935 34.5881 188.85 33.4908L192.11 29.5215C192.234 29.3689 192.368 29.3021 192.645 29.302L192.788 29.302L191.408 34.8734L193.42 34.8729L195.314 27.2408Z" fill="#333333"/>
</g>
<defs>
<filter id="filter0_d" x="10.1867" y="11.6826" width="77.1703" height="42.6818" filterUnits="userSpaceOnUse" color-interpolation-filters="sRGB">
<feFlood flood-opacity="0" result="BackgroundImageFix"/>
<feColorMatrix in="SourceAlpha" type="matrix" values="0 0 0 0 0 0 0 0 0 0 0 0 0 0 0 0 0 0 127 0" result="hardAlpha"/>
<feOffset dy="1.81331"/>
<feGaussianBlur stdDeviation="0.906657"/>
<feComposite in2="hardAlpha" operator="out"/>
<feColorMatrix type="matrix" values="0 0 0 0 0 0 0 0 0 0 0 0 0 0 0 0 0 0 0.04 0"/>
<feBlend mode="normal" in2="BackgroundImageFix" result="effect1_dropShadow"/>
<feBlend mode="normal" in="SourceGraphic" in2="effect1_dropShadow" result="shape"/>
</filter>
<filter id="filter1_dd" x="-13" y="-8.31738" width="123.544" height="89.0552" filterUnits="userSpaceOnUse" color-interpolation-filters="sRGB">
<feFlood flood-opacity="0" result="BackgroundImageFix"/>
<feColorMatrix in="SourceAlpha" type="matrix" values="0 0 0 0 0 0 0 0 0 0 0 0 0 0 0 0 0 0 127 0" result="hardAlpha"/>
<feOffset dy="5"/>
<feGaussianBlur stdDeviation="12.5"/>
<feColorMatrix type="matrix" values="0 0 0 0 0 0 0 0 0 0 0 0 0 0 0 0 0 0 0.1 0"/>
<feBlend mode="normal" in2="BackgroundImageFix" result="effect1_dropShadow"/>
<feColorMatrix in="SourceAlpha" type="matrix" values="0 0 0 0 0 0 0 0 0 0 0 0 0 0 0 0 0 0 127 0" result="hardAlpha"/>
<feOffset/>
<feGaussianBlur stdDeviation="5"/>
<feColorMatrix type="matrix" values="0 0 0 0 0 0 0 0 0 0 0 0 0 0 0 0 0 0 0.05 0"/>
<feBlend mode="normal" in2="effect1_dropShadow" result="effect2_dropShadow"/>
<feBlend mode="normal" in="SourceGraphic" in2="effect2_dropShadow" result="shape"/>
</filter>
<filter id="filter2_d" x="87.7945" y="17.429" width="102.531" height="13.8664" filterUnits="userSpaceOnUse" color-interpolation-filters="sRGB">
<feFlood flood-opacity="0" result="BackgroundImageFix"/>
<feColorMatrix in="SourceAlpha" type="matrix" values="0 0 0 0 0 0 0 0 0 0 0 0 0 0 0 0 0 0 127 0" result="hardAlpha"/>
<feOffset dy="2.18184"/>
<feGaussianBlur stdDeviation="1.09092"/>
<feComposite in2="hardAlpha" operator="out"/>
<feColorMatrix type="matrix" values="0 0 0 0 0 0 0 0 0 0 0 0 0 0 0 0 0 0 0.04 0"/>
<feBlend mode="normal" in2="BackgroundImageFix" result="effect1_dropShadow"/>
<feBlend mode="normal" in="SourceGraphic" in2="effect1_dropShadow" result="shape"/>
</filter>
<filter id="filter3_d" x="81.7478" y="37.5088" width="136.883" height="12.0299" filterUnits="userSpaceOnUse" color-interpolation-filters="sRGB">
<feFlood flood-opacity="0" result="BackgroundImageFix"/>
<feColorMatrix in="SourceAlpha" type="matrix" values="0 0 0 0 0 0 0 0 0 0 0 0 0 0 0 0 0 0 127 0" result="hardAlpha"/>
<feOffset dy="2.18184"/>
<feGaussianBlur stdDeviation="1.09092"/>
<feComposite in2="hardAlpha" operator="out"/>
<feColorMatrix type="matrix" values="0 0 0 0 0 0 0 0 0 0 0 0 0 0 0 0 0 0 0.04 0"/>
<feBlend mode="normal" in2="BackgroundImageFix" result="effect1_dropShadow"/>
<feBlend mode="normal" in="SourceGraphic" in2="effect1_dropShadow" result="shape"/>
</filter>
<filter id="filter4_d" x="84.9212" y="25.3335" width="112.575" height="13.9303" filterUnits="userSpaceOnUse" color-interpolation-filters="sRGB">
<feFlood flood-opacity="0" result="BackgroundImageFix"/>
<feColorMatrix in="SourceAlpha" type="matrix" values="0 0 0 0 0 0 0 0 0 0 0 0 0 0 0 0 0 0 127 0" result="hardAlpha"/>
<feOffset dy="2.18184"/>
<feGaussianBlur stdDeviation="1.09092"/>
<feComposite in2="hardAlpha" operator="out"/>
<feColorMatrix type="matrix" values="0 0 0 0 0 0 0 0 0 0 0 0 0 0 0 0 0 0 0.04 0"/>
<feBlend mode="normal" in2="BackgroundImageFix" result="effect1_dropShadow"/>
<feBlend mode="normal" in="SourceGraphic" in2="effect1_dropShadow" result="shape"/>
</filter>
</defs>
</svg>
