<svg viewBox="0 0 336 70" fill="none" xmlns="http://www.w3.org/2000/svg">
<g filter="url(#filter0_d)">
<path fill-rule="evenodd" clip-rule="evenodd" d="M116.882 38.0051L116.904 37.9217L116.904 37.9216C121.071 22.0667 121.384 20.8758 121.383 16.6279C121.378 5.74225 113.931 0.302103 99.0394 0.307499L41.9917 0.328172C23.5351 0.33486 12.0031 8.75071 7.50067 25.5757C3.31231 41.1141 2.99856 43.1924 3 46.755C3.00447 57.7396 10.4523 63.1798 25.4483 63.1743L42.8562 63.168L65.5075 63.1598L82.496 63.1537C100.848 63.147 112.38 54.7312 116.882 38.0051ZM82.6534 15.2043L77.9008 11.2032C74.3134 9.78371 72.4754 9.73084 69.8341 9.65486C69.404 9.64248 68.9525 9.6295 68.4687 9.60989C68.4687 8.76379 66.5005 7.4953 64.9957 9.89315L61.5226 10.1764C60.2348 10.4031 59.2148 10.0445 58.4871 9.78859C57.6241 9.48513 57.1721 9.32622 57.1721 10.4596L57.1362 10.5085C56.3408 11.592 56.1496 11.8525 57.3184 12.584C60.2451 13.5015 61.1638 14.4977 60.3162 16.1602C59.961 16.9513 59.5526 17.3362 59.2356 17.635C58.9 17.9514 58.6668 18.1712 58.7076 18.6742C59.1866 19.3096 59.6659 19.2488 60.7549 18.6742L64.557 17.612C66.3863 17.4093 66.8601 17.7627 67.372 18.6742C68.7203 19.2962 69.423 19.7093 70.4429 20.7278C69.5436 21.7463 69.0129 22.7033 68.5064 23.6168C67.8983 24.7132 67.3251 25.7469 66.191 26.7489C64.3934 26.9252 62.691 27.0806 59.9857 27.3246C58.9192 26.2117 58.1266 25.6585 56.6241 24.703L52.7822 24.1111L56.7114 24.6184L57.0607 21.5318L56.8424 24.6184C58.0478 25.2765 58.6086 25.786 59.3399 26.4504C59.5374 26.6299 59.7473 26.8206 59.9857 27.0286L67.0559 25.0568L67.8417 24.4916C68.86 22.7311 69.3905 21.9302 70.2865 20.7284L69.8936 20.2632C65.487 20.8768 63.1688 20.7578 59.603 20.5749C59.2357 20.556 58.8552 20.5365 58.4577 20.517C58.1772 19.126 57.6902 18.1772 56.3621 16.2464C56.6526 14.935 55.9337 14.0523 54.8193 12.684C54.7114 12.5514 54.5997 12.4143 54.4849 12.2718C53.5231 8.77794 50.3664 9.11121 51.2105 10.961L45.9716 13.2866C43.9172 12.2718 42.3892 16.1195 45.9716 16.1195C45.3275 17.9052 45.0364 18.8754 45.9716 19.9673L43.3958 23.3077C25.6533 26.6779 24.925 29.9419 23.1732 37.7918C22.4635 40.9723 21.5857 44.9056 19.3403 49.9038C18.9986 52.4192 19.2424 53.5022 20.912 54.5127C25.4348 56.9239 25.4549 56.1088 25.487 54.806C25.4894 54.7105 25.4918 54.6124 25.4961 54.5127L24.1427 53.2019C23.1689 50.8547 24.2577 49.0937 27.0678 45.7178C29.2136 44.1707 30.071 43.123 31.3181 41.5993C31.9354 40.8449 32.6482 39.9739 33.6601 38.8679C35.1617 36.9055 37.8477 37.0268 41.1062 37.1741C45.7112 37.3822 51.4596 37.642 56.6241 32.1448C53.8105 31.447 52.1711 30.6498 49.2495 29.2291L49.2494 29.229L49.2459 29.2273C53.3507 30.9438 55.5501 31.7048 59.2436 32.61C59.7077 31.9773 60.5305 31.7904 61.5842 31.6957L61.5226 31.7643C57.6694 34.0053 61.0311 39.037 66.5677 32.8725L66.9357 32.6737C69.7449 31.1575 71.1439 30.4025 73.4407 28.0572L74.9761 29.2256L77.2062 27.7031L75.1589 29.3672L72.7461 30.5711L70.9181 32.4831C67.372 34.041 70.5891 37.7234 73.9159 35.3157C74.8421 34.5721 77.4304 33.2628 77.5718 33.2266C80.9713 32.3563 82.9359 31.0455 83.4598 28.6354C83.1208 30.4813 82.5864 31.506 78.6138 33.2266C80.21 37.6831 82.6508 39.0255 85.1479 40.3987C88.3705 42.1709 91.6866 43.9946 93.4016 52.63C91.6385 53.2706 90.8316 53.7144 90.0017 54.7898C91.6666 56.3826 93.2712 56.0889 95.7566 55.6339C95.9988 55.5896 96.2493 55.5438 96.5091 55.498C97.5682 54.7108 97.9405 54.1092 98.0445 52.63C102.407 31.7643 95.2474 19.3331 82.6534 15.2043ZM35.9202 43.6358C34.9608 44.1171 34.1105 44.5436 34.6642 46.4366C36.9781 49.9038 41.6272 52.6507 41.6495 49.9038L39.9032 47.6628C38.8293 46.4613 39.207 45.9219 43.1338 44.0687C45.8843 43.0539 47.2814 39.4598 45.5787 37.5994C44.5954 37.5994 43.5456 37.5543 42.4932 37.5091H42.4932H42.4931H42.4931H42.4931C38.8732 37.3538 35.2227 37.1971 34.1404 38.8679C34.3197 38.9493 34.4931 39.0271 34.6605 39.1022L34.6652 39.1043L34.6667 39.105L34.6674 39.1053C36.2868 39.8319 37.3418 40.3053 37.8076 41.3626C37.6272 42.7795 36.7344 43.2274 35.9202 43.6358ZM82.1474 50.199C83.7798 49.028 83.3757 48.1873 82.9197 47.2385C82.5328 46.4335 82.1084 45.5506 82.8594 44.3221C84.0035 43.7019 86.5709 42.3722 88.3609 42.9271C88.0037 42.334 86.8643 41.6831 85.5187 40.9144C83.4109 39.7102 80.7972 38.217 79.8913 36.204C77.3698 36.6695 75.3983 40.8822 76.9357 43.313C78.8756 47.1036 78.8343 47.7542 77.2263 48.07L74.4302 48.8109C72.7151 50.9988 78.1284 51.5749 82.1474 50.199Z" fill="#FF153E"/>
</g>
<g filter="url(#filter1_d)">
<path d="M145.194 15.4444C145.806 12.972 145.852 12.7877 145.852 12.1274C145.851 10.4383 144.76 9.59403 142.58 9.5946L134.226 9.59678C131.524 9.59748 129.835 10.9032 129.176 13.5138C128.564 15.9248 128.518 16.2473 128.518 16.8001C128.519 18.5046 129.61 19.3489 131.806 19.3483L134.355 19.3476L133.726 21.8815L137.043 21.8806L137.671 19.3468L140.159 19.3461C142.846 19.3454 144.535 18.0397 145.194 15.4444ZM141.737 12.8349C142.182 12.8348 142.367 12.9422 142.367 13.2647C142.367 13.3722 142.352 13.5104 141.984 14.9078C141.785 15.691 141.094 16.1058 140.249 16.106L138.468 16.1065L139.28 12.8355L141.737 12.8349ZM135.963 12.8364L135.151 16.1074L132.618 16.108C132.172 16.1081 132.003 15.97 132.003 15.6782C132.003 15.5861 132.003 15.4018 132.371 14.0658C132.555 13.344 133.23 12.8371 134.136 12.8369L135.963 12.8364Z" fill="white"/>
<path d="M163.455 9.58916L151.569 9.59225C149.389 9.59282 148.053 10.5913 147.563 12.5877L146 18.8686C145.909 19.2371 145.863 19.575 145.863 19.8821C145.864 21.218 146.755 21.8781 148.52 21.8776L160.452 21.8745L161.233 18.711L149.793 18.714C149.532 18.7141 149.44 18.6834 149.44 18.5145C149.44 18.4684 149.471 18.3609 149.746 17.1784L161.493 17.1754L162.229 14.2269L150.482 14.23L150.666 13.4928C150.773 13.0782 151.08 12.7557 151.586 12.7555L162.673 12.7526L163.455 9.58916Z" fill="white"/>
<path d="M177.362 10.6297C177.162 9.87734 176.885 9.58565 176.041 9.58587L173.384 9.58657C172.586 9.58677 172.033 9.86332 171.48 10.6159L163.977 20.6144L161.751 20.615L160.709 24.8534L163.273 24.8528L163.534 23.8239L178.736 23.8199L178.475 24.8488L181.086 24.8481L182.143 20.6097L179.901 20.6103L177.362 10.6297ZM174.399 12.9185C174.63 12.9184 174.676 12.9645 174.722 13.1948L176.431 20.6112L167.939 20.6134L173.309 13.318C173.509 13.0569 173.739 12.9187 174 12.9186L174.399 12.9185Z" fill="white"/>
<path d="M201.088 9.57934L189.203 9.58244C187.022 9.58301 185.687 10.5815 185.197 12.5778L183.634 18.8587C183.542 19.2273 183.496 19.5651 183.496 19.8723C183.497 21.2082 184.388 21.8683 186.154 21.8678L198.085 21.8647L198.867 18.7012L187.427 18.7042C187.166 18.7043 187.073 18.6736 187.073 18.5047C187.073 18.4586 187.104 18.3511 187.38 17.1686L199.127 17.1656L199.862 14.2171L188.115 14.2201L188.299 13.483C188.406 13.0684 188.713 12.7458 189.22 12.7457L200.307 12.7428L201.088 9.57934Z" fill="white"/>
<path d="M216.026 14.8885C216.731 12.2164 216.731 12.0629 216.731 11.5408C216.73 10.2356 215.855 9.57549 214.089 9.57595L202.695 9.57892L199.646 21.8643L202.963 21.8634L203.943 17.886L212.02 17.8839C214.216 17.8834 215.49 16.9003 216.026 14.8885ZM212.862 12.8931C213.062 12.8931 213.154 12.9084 213.154 13.0466C213.154 13.108 213.169 13.2155 212.924 13.9987C212.847 14.2905 212.541 14.567 212.034 14.5671L204.771 14.569L205.184 12.8951L212.862 12.8931Z" fill="white"/>
<path d="M227.266 10.6167C227.066 9.83361 226.713 9.57266 225.899 9.57287L223.165 9.57359C222.259 9.57382 221.83 9.86569 221.293 10.6183L212.853 21.8608L216.861 21.8598L218.457 19.6635L226.104 19.6615L226.627 21.8572L230.128 21.8563L227.266 10.6167ZM224.35 12.9055C224.534 12.9054 224.58 12.9361 224.626 13.105L225.427 16.5291L220.682 16.5304L223.014 13.3358C223.229 13.044 223.474 12.9057 223.766 12.9056L224.35 12.9055Z" fill="white"/>
<path d="M249.966 9.5666L246.649 9.56746L244.428 18.5204L235.26 18.5228L237.482 9.56985L234.165 9.57072L231.116 21.8561L246.564 21.8521L245.813 24.8313L248.654 24.8305L250.232 18.5189L247.744 18.5196L249.966 9.5666Z" fill="white"/>
<path d="M268.968 9.56164L265.175 9.56263C263.317 9.56312 262.228 10.3465 261.031 11.7596L255.798 18.0568C255.552 18.364 255.261 18.5329 254.815 18.5331L254.585 18.5331L256.822 9.56481L253.566 9.56566L250.518 21.851L253.527 21.8502C255.938 21.8496 257.09 21.3886 258.563 19.6223L263.811 13.233C264.01 12.9873 264.225 12.8797 264.671 12.8796L264.901 12.8795L262.679 21.8478L265.919 21.847L268.968 9.56164Z" fill="white"/>
<path d="M286.537 9.55706L273.531 9.56045C271.443 9.561 270.153 10.5595 269.663 12.5558C269.173 14.5215 269.127 14.9054 269.127 15.2432C269.128 16.5638 269.911 17.2239 271.493 17.2235L272.123 17.2233L266.92 21.8467L271.357 21.8456L276.207 17.3758L281.275 17.3745L280.172 21.8433L283.488 21.8424L286.537 9.55706ZM282.424 12.7368L282.025 14.3646L272.781 14.367C272.582 14.367 272.489 14.2903 272.489 14.1521C272.489 14.106 272.489 14.0292 272.688 13.2768C272.796 12.9543 273.026 12.7392 273.533 12.7391L282.424 12.7368Z" fill="white"/>
</g>
<g filter="url(#filter2_d)">
<path d="M136.345 41.931L121.833 41.9348L118.785 54.2201L130.178 54.2171C132.374 54.2166 133.633 53.2335 134.169 51.2217C134.736 49.0564 134.751 48.8722 134.751 48.4268C134.75 47.1063 133.875 46.4462 132.109 46.4466L124.032 46.4488L124.369 45.0974L135.563 45.0944L136.345 41.931ZM130.959 49.3799C131.158 49.3798 131.251 49.4412 131.251 49.5487C131.251 49.5948 131.266 49.6562 131.021 50.5008C130.914 50.8233 130.668 51.0537 130.161 51.0539L122.883 51.0558L123.296 49.3819L130.959 49.3799Z" fill="white"/>
<path d="M153.432 45.8422C153.555 45.3354 153.616 44.8748 153.616 44.4602C153.615 42.771 152.524 41.9267 150.344 41.9273L141.99 41.9295C139.272 41.9302 137.584 43.2359 136.94 45.8465L135.837 50.3153C135.715 50.8221 135.654 51.2828 135.654 51.6667C135.655 53.3711 136.745 54.2154 138.941 54.2149L147.295 54.2127C150.013 54.212 151.686 52.9063 152.329 50.311L153.432 45.8422ZM149.409 45.2444C149.9 45.2443 150.085 45.3671 150.085 45.6742C150.085 45.7817 150.069 45.8892 150.039 46.0274L149.15 49.5748C148.951 50.358 148.26 50.8956 147.278 50.8958L139.83 50.8978C139.385 50.8979 139.17 50.729 139.169 50.3912C139.169 50.2837 139.185 50.1609 139.231 50.0227L140.073 46.6596C140.303 45.7535 140.979 45.2466 141.961 45.2463L149.409 45.2444Z" fill="white"/>
<path d="M169.41 47.2354C170.114 44.5633 170.114 44.4098 170.114 43.8877C170.113 42.5825 169.238 41.9224 167.472 41.9228L156.078 41.9258L153.029 54.2112L156.346 54.2103L157.326 50.2329L165.403 50.2308C167.599 50.2303 168.873 49.2472 169.41 47.2354ZM166.245 45.24C166.445 45.2399 166.537 45.2553 166.537 45.3935C166.537 45.4549 166.552 45.5624 166.307 46.3456C166.231 46.6374 165.924 46.9139 165.417 46.914L158.154 46.9159L158.567 45.242L166.245 45.24Z" fill="white"/>
<path d="M181.352 49.2132C181.521 49.2131 181.598 49.2745 181.598 49.3974C181.598 49.4742 181.583 49.5663 181.383 50.3495C181.292 50.7027 181.015 50.887 180.57 50.8872L173.245 50.8891L173.674 49.2152L181.352 49.2132ZM184.501 51.2086C185.191 48.598 185.221 48.3676 185.221 47.8762C185.22 46.5556 184.329 45.8956 182.563 45.896L174.486 45.8981L175.482 41.9208L172.165 41.9216L169.116 54.207L180.51 54.204C182.706 54.2034 183.965 53.2203 184.501 51.2086Z" fill="white"/>
<path d="M202.764 41.9136L188.253 41.9174L185.204 54.2028L196.598 54.1998C198.794 54.1992 200.052 53.2162 200.589 51.2044C201.156 49.0391 201.171 48.8548 201.171 48.4095C201.17 47.0889 200.294 46.4289 198.528 46.4293L190.451 46.4314L190.788 45.08L201.983 45.0771L202.764 41.9136ZM197.378 49.3626C197.578 49.3625 197.67 49.4239 197.67 49.5314C197.67 49.5775 197.686 49.6389 197.44 50.4835C197.333 50.806 197.087 51.0364 196.581 51.0365L189.302 51.0384L189.716 49.3646L197.378 49.3626Z" fill="white"/>
<path d="M213.481 49.2048C213.681 49.2048 213.773 49.2662 213.773 49.3736C213.773 49.4504 213.758 49.5119 213.558 50.3258C213.482 50.6175 213.206 50.8787 212.668 50.8788L205.42 50.8807L205.849 49.2068L213.481 49.2048ZM216.676 51.2002C217.335 48.5128 217.396 48.2824 217.396 47.8678C217.395 46.5473 216.504 45.8872 214.738 45.8877L206.661 45.8898L207.657 41.9124L204.34 41.9132L201.291 54.1986L212.685 54.1956C214.851 54.1951 216.186 53.1966 216.676 51.2002ZM223.381 41.9083L220.065 41.9091L217.016 54.1945L220.333 54.1936L223.381 41.9083Z" fill="white"/>
<path d="M244.209 47.2159C244.913 44.5438 244.913 44.3903 244.913 43.8682C244.912 42.563 244.037 41.9029 242.271 41.9033L230.877 41.9063L227.828 54.1917L231.145 54.1908L232.125 50.2134L240.202 50.2113C242.398 50.2107 243.672 49.2277 244.209 47.2159ZM241.044 45.2205C241.244 45.2204 241.336 45.2358 241.336 45.374C241.336 45.4354 241.352 45.5429 241.106 46.3261C241.03 46.6179 240.723 46.8944 240.216 46.8945L232.953 46.8964L233.366 45.2225L241.044 45.2205Z" fill="white"/>
<path d="M262.476 45.8138C262.598 45.307 262.66 44.8463 262.659 44.4317C262.658 42.7426 261.568 41.8983 259.387 41.8989L251.034 41.9011C248.316 41.9018 246.627 43.2074 245.984 45.8181L244.881 50.2869C244.758 50.7936 244.697 51.2543 244.697 51.6382C244.698 53.3427 245.789 54.187 247.985 54.1864L256.338 54.1842C259.056 54.1835 260.729 52.8779 261.373 50.2826L262.476 45.8138ZM258.452 45.216C258.944 45.2158 259.128 45.3386 259.128 45.6457C259.128 45.7532 259.113 45.8607 259.082 45.9989L258.194 49.5463C257.995 50.3295 257.304 50.8672 256.321 50.8674L248.874 50.8694C248.428 50.8695 248.213 50.7006 248.213 50.3628C248.213 50.2553 248.228 50.1324 248.274 49.9942L249.117 46.6311C249.347 45.7251 250.022 45.2182 251.005 45.2179L258.452 45.216Z" fill="white"/>
<path d="M280.677 41.8933L268.377 41.8965C266.196 41.8971 264.861 42.8956 264.371 44.8919L262.808 51.1728C262.716 51.5414 262.67 51.8792 262.67 52.1863C262.671 53.5223 263.562 54.1824 265.328 54.1819L277.674 54.1787L278.486 50.8616L266.662 50.8647C266.416 50.8648 266.293 50.788 266.293 50.6191C266.293 50.5577 266.278 50.4963 266.324 50.3888L267.427 45.9507C267.504 45.5975 267.903 45.2135 268.379 45.2134L279.849 45.2104L280.677 41.8933Z" fill="white"/>
<path d="M297.934 41.8888L285.634 41.892C283.453 41.8926 282.118 42.8911 281.628 44.8874L280.065 51.1683C279.973 51.5369 279.927 51.8747 279.927 52.1818C279.928 53.5178 280.819 54.1779 282.585 54.1774L294.931 54.1742L295.743 50.8571L283.919 50.8602C283.673 50.8603 283.551 50.7835 283.55 50.6146C283.55 50.5532 283.535 50.4918 283.581 50.3843L284.684 45.9462C284.761 45.593 285.16 45.209 285.636 45.2089L297.106 45.2059L297.934 41.8888Z" fill="white"/>
<path d="M315.037 41.8844L311.245 41.8854C309.387 41.8858 308.297 42.6693 307.1 44.0823L301.867 50.3795C301.622 50.6867 301.33 50.8557 300.885 50.8558L300.654 50.8559L302.891 41.8875L299.636 41.8884L296.587 54.1737L299.597 54.173C302.007 54.1723 303.159 53.7114 304.632 51.9451L309.88 45.5557C310.079 45.31 310.294 45.2024 310.74 45.2023L310.97 45.2023L308.749 54.1706L311.989 54.1697L315.037 41.8844Z" fill="white"/>
<path d="M332.1 41.8799L328.307 41.8809C326.449 41.8814 325.359 42.6648 324.162 44.0779L318.929 50.3751C318.684 50.6822 318.392 50.8512 317.947 50.8513L317.716 50.8514L319.953 41.8831L316.698 41.8839L313.649 54.1693L316.659 54.1685C319.07 54.1679 320.221 53.7069 321.694 51.9406L326.942 45.5513C327.142 45.3055 327.357 45.198 327.802 45.1979L328.032 45.1978L325.811 54.1661L329.051 54.1653L332.1 41.8799Z" fill="white"/>
</g>
<g filter="url(#filter3_d)">
<path d="M141.899 25.3919L129.6 25.3951C127.419 25.3957 126.084 26.3941 125.593 28.3905L124.031 34.6714C123.939 35.04 123.893 35.3778 123.893 35.6849C123.894 37.0208 124.785 37.6809 126.551 37.6805L138.897 37.6772L139.709 34.3602L127.885 34.3633C127.639 34.3633 127.516 34.2866 127.516 34.1177C127.516 34.0563 127.501 33.9948 127.547 33.8873L128.65 29.4492C128.726 29.096 129.125 28.712 129.601 28.7119L141.072 28.7089L141.899 25.3919Z" fill="white"/>
<path d="M159.402 25.3873L143.601 25.3914L140.552 37.6768L143.869 37.6759L146.091 28.723L155.258 28.7206L153.037 37.6735L156.354 37.6727L159.402 25.3873Z" fill="white"/>
<path d="M176.565 29.2985C176.687 28.7918 176.749 28.3311 176.748 27.9165C176.747 26.2274 175.657 25.3831 173.476 25.3836L165.123 25.3858C162.405 25.3865 160.716 26.6922 160.073 29.3028L158.97 33.7716C158.847 34.2784 158.786 34.7391 158.786 35.123C158.787 36.8275 159.878 37.6718 162.074 37.6712L170.427 37.669C173.145 37.6683 174.818 36.3626 175.462 33.7673L176.565 29.2985ZM172.541 28.7007C173.033 28.7006 173.217 28.8234 173.217 29.1305C173.217 29.238 173.202 29.3455 173.171 29.4837L172.283 33.0311C172.084 33.8143 171.393 34.3519 170.41 34.3522L162.963 34.3541C162.517 34.3542 162.302 34.1854 162.302 33.8476C162.302 33.7401 162.317 33.6172 162.363 33.479L163.206 30.1159C163.436 29.2098 164.111 28.7029 165.094 28.7027L172.541 28.7007Z" fill="white"/>
<path d="M192.542 30.6918C193.247 28.0197 193.247 27.8661 193.247 27.344C193.246 26.0388 192.37 25.3787 190.604 25.3792L179.21 25.3822L176.162 37.6675L179.478 37.6667L180.459 33.6893L188.536 33.6872C190.732 33.6866 192.006 32.7035 192.542 30.6918ZM189.378 28.6963C189.577 28.6963 189.669 28.7116 189.67 28.8498C189.67 28.9112 189.685 29.0187 189.44 29.8019C189.363 30.0937 189.056 30.3702 188.549 30.3703L181.286 30.3722L181.7 28.6983L189.378 28.6963Z" fill="white"/>
<path d="M210.439 25.374L195.298 25.378L194.471 28.695L200.444 28.6934L198.222 37.6618L201.539 37.6609L203.761 28.6926L209.611 28.6911L210.439 25.374Z" fill="white"/>
<path d="M227.492 25.3696L223.699 25.3706C221.841 25.371 220.751 26.1545 219.554 27.5675L214.322 33.8647C214.076 34.1719 213.784 34.3409 213.339 34.341L213.109 34.341L215.346 25.3727L212.09 25.3736L209.041 37.6589L212.051 37.6582C214.462 37.6575 215.613 37.1966 217.086 35.4303L222.335 29.0409C222.534 28.7952 222.749 28.6876 223.194 28.6875L223.425 28.6875L221.203 37.6558L224.443 37.6549L227.492 25.3696Z" fill="white"/>
<path d="M244.265 29.4652C244.632 28.0063 244.678 27.7452 244.678 27.3153C244.677 26.01 243.832 25.3653 242.159 25.3657L229.152 25.3691L226.104 37.6545L239.11 37.6511C241.306 37.6505 242.564 36.6674 243.101 34.6403C243.591 32.8897 243.576 32.7668 243.575 32.5211C243.575 31.999 243.345 31.5998 242.884 31.3389C243.605 30.8627 244.081 30.2484 244.265 29.4652ZM239.844 32.8599C240.059 32.8599 240.167 32.9213 240.167 33.0595C240.167 33.1055 240.151 33.1516 239.983 33.8887C239.876 34.2419 239.538 34.4877 239.001 34.4879L230.202 34.4901L230.6 32.8623L239.844 32.8599ZM240.855 28.5294C241.116 28.5293 241.239 28.606 241.239 28.7442C241.239 28.8057 241.239 28.8824 241.071 29.5121C240.963 29.8346 240.703 30.065 240.211 30.0651L231.305 30.0674L231.688 28.5317L240.855 28.5294Z" fill="white"/>
<path d="M262.87 25.3603L259.554 25.3612L258.512 29.5229L249.344 29.5253L250.386 25.3636L247.069 25.3645L244.021 37.6498L247.337 37.649L248.517 32.8577L257.684 32.8553L256.505 37.6466L259.822 37.6457L262.87 25.3603Z" fill="white"/>
<path d="M280.033 29.2716C280.156 28.7648 280.217 28.3041 280.216 27.8895C280.216 26.2004 279.125 25.3561 276.944 25.3567L268.591 25.3588C265.873 25.3596 264.184 26.6652 263.541 29.2759L262.438 33.7447C262.315 34.2514 262.254 34.7121 262.254 35.096C262.255 36.8005 263.346 37.6448 265.542 37.6442L273.895 37.642C276.613 37.6413 278.286 36.3357 278.93 33.7404L280.033 29.2716ZM276.009 28.6737C276.501 28.6736 276.685 28.7964 276.685 29.1035C276.685 29.211 276.67 29.3185 276.639 29.4567L275.751 33.0041C275.552 33.7873 274.861 34.3249 273.878 34.3252L266.431 34.3271C265.985 34.3273 265.77 34.1584 265.77 33.8206C265.77 33.7131 265.785 33.5902 265.831 33.452L266.674 30.0889C266.904 29.1829 267.579 28.6759 268.562 28.6757L276.009 28.6737Z" fill="white"/>
<path d="M292.289 22.2815C292.167 22.7422 291.645 23.6791 291.123 23.6792L290.923 23.6793C290.509 23.6794 290.386 23.5105 290.386 23.1266C290.386 22.8963 290.416 22.6045 290.493 22.282L288.696 22.2825C288.65 22.5128 288.62 22.7432 288.62 22.9735C288.62 23.8334 288.989 24.8775 290.218 24.8772L291.293 24.8769C292.89 24.8765 293.887 23.1871 294.086 22.2811L292.289 22.2815ZM298.08 25.3512L294.287 25.3521C292.429 25.3526 291.339 26.1361 290.143 27.5491L284.91 33.8463C284.664 34.1535 284.373 34.3225 283.927 34.3226L283.697 34.3226L285.934 25.3543L282.678 25.3552L279.63 37.6405L282.639 37.6398C285.05 37.6391 286.202 37.1781 287.675 35.4119L292.923 29.0225C293.122 28.7768 293.337 28.6692 293.782 28.6691L294.013 28.6691L291.791 37.6374L295.031 37.6365L298.08 25.3512Z" fill="white"/>
</g>
<defs>
<filter id="filter0_d" x="0.0811186" y="0.307495" width="124.221" height="68.7046" filterUnits="userSpaceOnUse" color-interpolation-filters="sRGB">
<feFlood flood-opacity="0" result="BackgroundImageFix"/>
<feColorMatrix in="SourceAlpha" type="matrix" values="0 0 0 0 0 0 0 0 0 0 0 0 0 0 0 0 0 0 127 0" result="hardAlpha"/>
<feOffset dy="2.91888"/>
<feGaussianBlur stdDeviation="1.45944"/>
<feComposite in2="hardAlpha" operator="out"/>
<feColorMatrix type="matrix" values="0 0 0 0 0 0 0 0 0 0 0 0 0 0 0 0 0 0 0.04 0"/>
<feBlend mode="normal" in2="BackgroundImageFix" result="effect1_dropShadow"/>
<feBlend mode="normal" in="SourceGraphic" in2="effect1_dropShadow" result="shape"/>
</filter>
<filter id="filter1_d" x="125.006" y="9.55701" width="165.043" height="22.3206" filterUnits="userSpaceOnUse" color-interpolation-filters="sRGB">
<feFlood flood-opacity="0" result="BackgroundImageFix"/>
<feColorMatrix in="SourceAlpha" type="matrix" values="0 0 0 0 0 0 0 0 0 0 0 0 0 0 0 0 0 0 127 0" result="hardAlpha"/>
<feOffset dy="3.5121"/>
<feGaussianBlur stdDeviation="1.75605"/>
<feComposite in2="hardAlpha" operator="out"/>
<feColorMatrix type="matrix" values="0 0 0 0 0 0 0 0 0 0 0 0 0 0 0 0 0 0 0.04 0"/>
<feBlend mode="normal" in2="BackgroundImageFix" result="effect1_dropShadow"/>
<feBlend mode="normal" in="SourceGraphic" in2="effect1_dropShadow" result="shape"/>
</filter>
<filter id="filter2_d" x="115.272" y="41.8799" width="220.339" height="19.3644" filterUnits="userSpaceOnUse" color-interpolation-filters="sRGB">
<feFlood flood-opacity="0" result="BackgroundImageFix"/>
<feColorMatrix in="SourceAlpha" type="matrix" values="0 0 0 0 0 0 0 0 0 0 0 0 0 0 0 0 0 0 127 0" result="hardAlpha"/>
<feOffset dy="3.5121"/>
<feGaussianBlur stdDeviation="1.75605"/>
<feComposite in2="hardAlpha" operator="out"/>
<feColorMatrix type="matrix" values="0 0 0 0 0 0 0 0 0 0 0 0 0 0 0 0 0 0 0.04 0"/>
<feBlend mode="normal" in2="BackgroundImageFix" result="effect1_dropShadow"/>
<feBlend mode="normal" in="SourceGraphic" in2="effect1_dropShadow" result="shape"/>
</filter>
<filter id="filter3_d" x="120.381" y="22.281" width="181.211" height="22.4236" filterUnits="userSpaceOnUse" color-interpolation-filters="sRGB">
<feFlood flood-opacity="0" result="BackgroundImageFix"/>
<feColorMatrix in="SourceAlpha" type="matrix" values="0 0 0 0 0 0 0 0 0 0 0 0 0 0 0 0 0 0 127 0" result="hardAlpha"/>
<feOffset dy="3.5121"/>
<feGaussianBlur stdDeviation="1.75605"/>
<feComposite in2="hardAlpha" operator="out"/>
<feColorMatrix type="matrix" values="0 0 0 0 0 0 0 0 0 0 0 0 0 0 0 0 0 0 0.04 0"/>
<feBlend mode="normal" in2="BackgroundImageFix" result="effect1_dropShadow"/>
<feBlend mode="normal" in="SourceGraphic" in2="effect1_dropShadow" result="shape"/>
</filter>
</defs>
</svg>
