<svg viewBox="0 0 205 40" fill="none" xmlns="http://www.w3.org/2000/svg">
<path fill-rule="evenodd" clip-rule="evenodd" d="M70.7477 24.1017L70.7612 24.0503L70.7613 24.0499C73.3502 14.2002 73.5447 13.4604 73.5436 10.8215C73.5409 4.05888 68.914 0.679267 59.6631 0.68262L24.223 0.695462C12.7571 0.699617 5.59306 5.92785 2.79598 16.3801C0.194019 26.0331 -0.000897529 27.3242 3.08021e-06 29.5375C0.00277996 36.3615 4.62961 39.7411 13.9457 39.7378L24.7601 39.7338L38.8319 39.7287L49.3857 39.7249C60.7865 39.7208 67.9506 34.4925 70.7477 24.1017ZM49.4836 9.93703L46.5311 7.45144C44.3024 6.56958 43.1606 6.53674 41.5197 6.48953C41.2525 6.48185 40.9721 6.47378 40.6715 6.4616C40.6715 5.93597 39.4488 5.14794 38.5139 6.63757L36.3563 6.81354C35.5563 6.95439 34.9226 6.73158 34.4706 6.57261C33.9344 6.3841 33.6537 6.28537 33.6537 6.98945L33.6314 7.01985C33.1372 7.69296 33.0184 7.85477 33.7445 8.30923C35.5627 8.87923 36.1334 9.49811 35.6069 10.5309C35.3862 11.0223 35.1325 11.2615 34.9356 11.4471C34.7271 11.6436 34.5822 11.7802 34.6076 12.0927C34.9051 12.4874 35.2029 12.4497 35.8794 12.0927L38.2414 11.4328C39.3778 11.3069 39.6722 11.5264 39.9902 12.0927C40.8278 12.4791 41.2643 12.7357 41.8979 13.3685C41.3393 14.0012 41.0096 14.5957 40.6949 15.1632C40.3172 15.8443 39.9611 16.4865 39.2565 17.109C38.1398 17.2185 37.0822 17.315 35.4016 17.4666C34.739 16.7752 34.2467 16.4316 33.3132 15.838L30.9265 15.4703L33.3675 15.7854L33.5844 13.8679L33.4488 15.7854C34.1977 16.1942 34.5461 16.5108 35.0004 16.9235L35.0005 16.9237L35.0008 16.9239C35.1234 17.0353 35.2536 17.1537 35.4016 17.2827L39.7938 16.0577L40.282 15.7066C40.9146 14.613 41.2442 14.1154 41.8008 13.3688L41.5567 13.0798C38.8192 13.461 37.379 13.3871 35.1638 13.2734C34.9357 13.2617 34.6992 13.2496 34.4523 13.2375C34.2781 12.3734 33.9755 11.7839 33.1505 10.5844C33.3309 9.76974 32.8843 9.2214 32.192 8.37133C32.125 8.28897 32.0556 8.20379 31.9842 8.11526C31.3867 5.94476 29.4257 6.1518 29.9501 7.30096L26.6955 8.74569C25.4193 8.11526 24.47 10.5056 26.6955 10.5056C26.2953 11.6149 26.1145 12.2177 26.6955 12.896L25.0953 14.9712C14.0731 17.0648 13.6206 19.0926 12.5323 23.9692C12.0914 25.9451 11.5461 28.3886 10.1512 31.4936C9.93891 33.0563 10.0903 33.7291 11.1276 34.3568C13.9373 35.8547 13.9498 35.3484 13.9698 34.539C13.9712 34.4797 13.9727 34.4188 13.9754 34.3568L13.1346 33.5425C12.5296 32.0843 13.206 30.9903 14.9518 28.8931C16.2849 27.932 16.8175 27.2812 17.5922 26.3345L17.5922 26.3345L17.5923 26.3344L17.5923 26.3344C17.9758 25.8658 18.4186 25.3248 19.0472 24.6377C19.98 23.4186 21.6486 23.494 23.6729 23.5855C26.5337 23.7147 30.1048 23.8761 33.3132 20.4611C31.5653 20.0276 30.5469 19.5324 28.7318 18.6497L28.7296 18.6487C31.2797 19.715 32.646 20.1878 34.9405 20.7501C35.2289 20.3571 35.74 20.2409 36.3946 20.1821L36.3563 20.2247C33.9626 21.6169 36.051 24.7428 39.4905 20.9132L39.7192 20.7897C41.4643 19.8478 42.3334 19.3787 43.7603 17.9217L44.7142 18.6476L46.0996 17.7017L44.8277 18.7356L43.3288 19.4834L42.1932 20.6713C39.9902 21.6391 41.9888 23.9267 44.0555 22.431C44.6309 21.969 46.2388 21.1557 46.3267 21.1332C48.4386 20.5925 49.6591 19.7782 49.9845 18.2809C49.7739 19.4277 49.4419 20.0642 46.974 21.1332C47.9656 23.9017 49.482 24.7356 51.0332 25.5887C53.0352 26.6897 55.0953 27.8226 56.1607 33.1872C55.0654 33.5852 54.5642 33.8609 54.0486 34.529C55.0829 35.5185 56.0797 35.336 57.6237 35.0534C57.7742 35.0259 57.9298 34.9974 58.0912 34.9689C58.7491 34.4799 58.9804 34.1062 59.0451 33.1872C61.7554 20.2247 57.3074 12.502 49.4836 9.93703ZM20.4512 27.5997C19.8552 27.8987 19.327 28.1637 19.671 29.3397C21.1084 31.4936 23.9966 33.2001 24.0104 31.4936L22.9256 30.1014C22.2585 29.355 22.4931 29.0199 24.9326 27.8687C26.6413 27.2382 27.5092 25.0054 26.4514 23.8497C25.8406 23.8497 25.1884 23.8217 24.5346 23.7936H24.5346H24.5346H24.5345H24.5345H24.5345C22.2857 23.6971 20.0179 23.5998 19.3455 24.6377C19.4583 24.6889 19.5672 24.7378 19.6723 24.7849L19.6729 24.7852C20.6789 25.2366 21.3344 25.5307 21.6237 26.1875C21.5117 27.0678 20.957 27.346 20.4512 27.5997ZM49.1692 31.677C50.1833 30.9495 49.9323 30.4273 49.649 29.8379C49.4086 29.3377 49.145 28.7893 49.6115 28.0261C50.3223 27.6408 51.9173 26.8147 53.0293 27.1595C52.8074 26.791 52.0996 26.3867 51.2637 25.9091L51.2637 25.9091L51.2636 25.9091C49.9542 25.161 48.3304 24.2334 47.7676 22.9828C46.2012 23.272 44.9764 25.8891 45.9315 27.3992C47.1366 29.754 47.111 30.1582 46.112 30.3544L44.375 30.8147C43.3095 32.1738 46.6725 32.5318 49.1692 31.677Z" fill="#FF153E"/>
<path d="M88.3358 10.0864C88.7166 8.55048 88.7451 8.436 88.7449 8.0258C88.7443 6.97645 88.0667 6.45196 86.7121 6.45231L81.5226 6.45366C79.8436 6.4541 78.7947 7.26523 78.3855 8.88706C78.0047 10.3849 77.9762 10.5852 77.9764 10.9286C77.977 11.9875 78.6546 12.512 80.0188 12.5117L81.6023 12.5112L81.2121 14.0854L83.2726 14.0848L83.6629 12.5107L85.2083 12.5103C86.8777 12.5099 87.9266 11.6987 88.3358 10.0864ZM86.1885 8.46529C86.4652 8.46521 86.5797 8.53196 86.5798 8.73229C86.5798 8.79907 86.5704 8.88493 86.3419 9.75308C86.2182 10.2396 85.789 10.4973 85.2644 10.4974L84.1578 10.4977L84.6622 8.46568L86.1885 8.46529ZM82.6017 8.46622L82.0972 10.4983L80.5232 10.4987C80.2466 10.4988 80.1416 10.4129 80.1415 10.2317C80.1415 10.1744 80.1414 10.06 80.3699 9.22996C80.4841 8.78158 80.9036 8.46666 81.4665 8.46652L82.6017 8.46622Z" fill="#333333"/>
<path d="M99.6803 6.44893L92.2967 6.45086C90.9421 6.45121 90.1125 7.07149 89.808 8.31171L88.8371 12.2136C88.78 12.4426 88.7515 12.6525 88.7516 12.8433C88.7521 13.6732 89.3056 14.0832 90.4027 14.083L97.8149 14.081L98.3003 12.1158L91.1933 12.1176C91.0312 12.1177 90.9739 12.0986 90.9739 11.9937C90.9738 11.965 90.9929 11.8983 91.1642 11.1637L98.4619 11.1618L98.9188 9.33006L91.621 9.33197L91.7353 8.87404C91.8019 8.61645 91.9926 8.41607 92.3074 8.41599L99.1949 8.4142L99.6803 6.44893Z" fill="#333333"/>
<path d="M108.32 7.09536C108.196 6.62796 108.024 6.44675 107.499 6.44689L105.849 6.44732C105.353 6.44745 105.009 6.61925 104.666 7.08678L100.005 13.2982L98.6217 13.2986L97.9745 15.9317L99.5676 15.9312L99.7294 15.292L109.174 15.2896L109.012 15.9288L110.633 15.9284L111.29 13.2953L109.897 13.2956L108.32 7.09536ZM106.48 8.51723C106.623 8.51719 106.651 8.54581 106.68 8.68889L107.741 13.2962L102.466 13.2976L105.802 8.76544C105.926 8.60323 106.069 8.51734 106.232 8.5173L106.48 8.51723Z" fill="#333333"/>
<path d="M123.06 6.44283L115.676 6.44476C114.321 6.44511 113.492 7.0654 113.187 8.30561L112.216 12.2075C112.159 12.4365 112.131 12.6464 112.131 12.8372C112.131 13.6671 112.685 14.0772 113.782 14.0769L121.194 14.0749L121.68 12.1097L114.573 12.1115C114.41 12.1116 114.353 12.0925 114.353 11.9876C114.353 11.9589 114.372 11.8922 114.543 11.1576L121.841 11.1557L122.298 9.32397L115 9.32587L115.115 8.86794C115.181 8.61036 115.372 8.40998 115.687 8.4099L122.574 8.4081L123.06 6.44283Z" fill="#333333"/>
<path d="M132.34 9.74109C132.778 8.0811 132.778 7.9857 132.777 7.66136C132.777 6.8505 132.233 6.44044 131.136 6.44073L124.058 6.44257L122.164 14.0747L124.224 14.0741L124.833 11.6033L129.851 11.6019C131.215 11.6016 132.007 10.9909 132.34 9.74109ZM130.374 8.50146C130.498 8.50143 130.555 8.51095 130.555 8.59681C130.555 8.63497 130.565 8.70174 130.413 9.1883C130.365 9.36956 130.174 9.54132 129.859 9.5414L125.347 9.54258L125.604 8.50271L130.374 8.50146Z" fill="#333333"/>
<path d="M139.322 7.08728C139.198 6.6008 138.978 6.43868 138.473 6.43881L136.775 6.43926C136.212 6.4394 135.945 6.62072 135.611 7.08825L130.369 14.0725L132.858 14.0719L133.85 12.7075L138.6 12.7062L138.925 14.0703L141.1 14.0697L139.322 7.08728ZM137.51 8.50914C137.625 8.50911 137.654 8.52818 137.682 8.63311L138.18 10.7603L135.232 10.7611L136.681 8.77646C136.814 8.59518 136.967 8.50928 137.148 8.50923L137.51 8.50914Z" fill="#333333"/>
<path d="M153.424 6.43492L151.364 6.43545L149.984 11.9974L144.289 11.9988L145.669 6.43694L143.608 6.43748L141.714 14.0696L151.311 14.0671L150.844 15.9179L152.609 15.9174L153.59 11.9964L152.044 11.9968L153.424 6.43492Z" fill="#333333"/>
<path d="M165.229 6.43184L162.873 6.43245C161.719 6.43275 161.042 6.91944 160.298 7.79727L157.047 11.7093C156.895 11.9002 156.714 12.0051 156.437 12.0052L156.294 12.0052L157.683 6.4338L155.661 6.43433L153.767 14.0664L155.637 14.066C157.134 14.0656 157.85 13.7792 158.765 12.6819L162.025 8.71262C162.149 8.55995 162.283 8.49314 162.559 8.49307L162.702 8.49303L161.322 14.0645L163.335 14.0639L165.229 6.43184Z" fill="#333333"/>
<path d="M176.144 6.42899L168.064 6.4311C166.766 6.43144 165.965 7.05171 165.661 8.29193C165.356 9.51307 165.328 9.75156 165.328 9.96143C165.328 10.7818 165.815 11.1919 166.798 11.1916L167.189 11.1915L163.956 14.0638L166.713 14.0631L169.726 11.2863L172.874 11.2855L172.189 14.0616L174.25 14.0611L176.144 6.42899ZM173.588 8.40434L173.341 9.41559L167.598 9.41709C167.474 9.41712 167.417 9.36944 167.417 9.28358C167.417 9.25496 167.417 9.20727 167.54 8.7398C167.607 8.53945 167.75 8.40586 168.065 8.40578L173.588 8.40434Z" fill="#333333"/>
<path d="M82.8385 26.5406L73.8237 26.543L71.9296 34.1751L79.0079 34.1732C80.3721 34.1729 81.154 33.5621 81.4872 32.3124C81.8394 30.9672 81.8488 30.8527 81.8487 30.5761C81.8482 29.7557 81.3042 29.3456 80.2072 29.3459L75.1894 29.3472L75.3988 28.5077L82.3531 28.5059L82.8385 26.5406ZM79.4927 31.1681C79.6168 31.1681 79.674 31.2063 79.6741 31.273C79.6741 31.3017 79.6836 31.3398 79.5313 31.8645C79.4646 32.0649 79.3121 32.208 78.9973 32.2081L74.4755 32.2093L74.7325 31.1694L79.4927 31.1681Z" fill="#333333"/>
<path d="M93.4541 28.9704C93.5302 28.6556 93.5682 28.3694 93.5681 28.1118C93.5675 27.0625 92.8899 26.538 91.5353 26.5383L86.3458 26.5397C84.6573 26.5401 83.6084 27.3513 83.2086 28.9731L82.5234 31.7493C82.4472 32.0641 82.4092 32.3503 82.4094 32.5888C82.41 33.6477 83.0876 34.1722 84.4517 34.1718L89.6412 34.1705C91.3297 34.17 92.3691 33.3589 92.7688 31.7466L93.4541 28.9704ZM90.9545 28.599C91.2598 28.599 91.3743 28.6752 91.3744 28.866C91.3744 28.9328 91.3649 28.9996 91.3459 29.0854L90.7939 31.2892C90.6701 31.7758 90.241 32.1098 89.6305 32.1099L85.0038 32.1111C84.7272 32.1112 84.5936 32.0063 84.5935 31.7964C84.5934 31.7297 84.6029 31.6533 84.6315 31.5675L85.155 29.4782C85.2978 28.9153 85.7173 28.6004 86.3279 28.6002L90.9545 28.599Z" fill="#333333"/>
<path d="M103.38 29.8359C103.818 28.1759 103.818 28.0805 103.817 27.7562C103.817 26.9453 103.273 26.5353 102.176 26.5356L95.0975 26.5374L93.2035 34.1695L95.264 34.169L95.8731 31.6981L100.891 31.6968C102.255 31.6964 103.047 31.0857 103.38 29.8359ZM101.414 28.5963C101.538 28.5963 101.595 28.6058 101.595 28.6917C101.595 28.7298 101.605 28.7966 101.452 29.2831C101.405 29.4644 101.214 29.6362 100.899 29.6362L96.3871 29.6374L96.6441 28.5975L101.414 28.5963Z" fill="#333333"/>
<path d="M110.799 31.0646C110.904 31.0646 110.952 31.1027 110.952 31.179C110.952 31.2267 110.942 31.284 110.818 31.7705C110.761 31.9899 110.59 32.1045 110.313 32.1045L105.763 32.1057L106.029 31.0658L110.799 31.0646ZM112.755 32.3042C113.184 30.6824 113.203 30.5393 113.202 30.234C113.202 29.4136 112.648 29.0036 111.551 29.0039L106.534 29.0052L107.152 26.5343L105.092 26.5348L103.198 34.1669L110.276 34.1651C111.64 34.1647 112.422 33.554 112.755 32.3042Z" fill="#333333"/>
<path d="M124.101 26.5299L115.086 26.5322L113.192 34.1643L120.27 34.1625C121.634 34.1621 122.416 33.5514 122.749 32.3016C123.101 30.9564 123.111 30.842 123.111 30.5653C123.11 29.7449 122.566 29.3349 121.469 29.3352L116.452 29.3365L116.661 28.4969L123.615 28.4951L124.101 26.5299ZM120.755 31.1574C120.879 31.1574 120.936 31.1955 120.936 31.2623C120.936 31.2909 120.946 31.3291 120.793 31.8538C120.727 32.0541 120.574 32.1972 120.259 32.1973L115.738 32.1985L115.995 31.1586L120.755 31.1574Z" fill="#333333"/>
<path d="M130.759 31.0594C130.883 31.0594 130.94 31.0975 130.94 31.1643C130.94 31.212 130.93 31.2501 130.807 31.7558C130.759 31.937 130.587 32.0992 130.254 32.0993L125.751 32.1005L126.017 31.0606L130.759 31.0594ZM132.743 32.299C133.153 30.6295 133.191 30.4864 133.191 30.2288C133.19 29.4084 132.637 28.9984 131.54 28.9986L126.522 29L127.14 26.5291L125.08 26.5296L123.186 34.1617L130.264 34.1599C131.609 34.1595 132.439 33.5392 132.743 32.299ZM136.909 26.5265L134.848 26.527L132.954 34.1592L135.015 34.1586L136.909 26.5265Z" fill="#333333"/>
<path d="M149.848 29.8238C150.285 28.1638 150.285 28.0684 150.285 27.7441C150.285 26.9332 149.741 26.5232 148.644 26.5235L141.565 26.5253L139.671 34.1574L141.732 34.1569L142.341 31.686L147.359 31.6847C148.723 31.6843 149.514 31.0736 149.848 29.8238ZM147.882 28.5842C148.006 28.5842 148.063 28.5937 148.063 28.6795C148.063 28.7177 148.073 28.7845 147.92 29.271C147.873 29.4523 147.682 29.624 147.367 29.6241L142.855 29.6253L143.112 28.5854L147.882 28.5842Z" fill="#333333"/>
<path d="M161.196 28.9528C161.272 28.6379 161.31 28.3517 161.31 28.0942C161.309 27.0448 160.632 26.5203 159.277 26.5207L154.088 26.522C152.399 26.5225 151.35 27.3336 150.95 28.9554L150.265 31.7316C150.189 32.0464 150.151 32.3326 150.151 32.5711C150.152 33.63 150.829 34.1545 152.193 34.1541L157.383 34.1528C159.071 34.1523 160.111 33.3412 160.511 31.7289L161.196 28.9528ZM158.696 28.5814C159.002 28.5813 159.116 28.6576 159.116 28.8484C159.116 28.9151 159.107 28.9819 159.088 29.0678L158.536 31.2716C158.412 31.7581 157.983 32.0921 157.372 32.0923L152.746 32.0935C152.469 32.0935 152.335 31.9886 152.335 31.7788C152.335 31.712 152.345 31.6357 152.373 31.5498L152.897 29.4605C153.04 28.8976 153.459 28.5827 154.07 28.5826L158.696 28.5814Z" fill="#333333"/>
<path d="M172.503 26.5172L164.862 26.5192C163.507 26.5196 162.677 27.1399 162.373 28.3801L161.402 32.282C161.345 32.511 161.316 32.7208 161.317 32.9116C161.317 33.7416 161.871 34.1516 162.968 34.1513L170.637 34.1493L171.142 32.0887L163.796 32.0906C163.644 32.0906 163.567 32.0429 163.567 31.938C163.567 31.8998 163.558 31.8617 163.586 31.7949L164.272 29.0378C164.319 28.8184 164.567 28.5798 164.863 28.5798L171.989 28.5779L172.503 26.5172Z" fill="#333333"/>
<path d="M183.224 26.5144L175.582 26.5164C174.228 26.5168 173.398 27.1371 173.094 28.3773L172.123 32.2792C172.066 32.5082 172.037 32.718 172.037 32.9088C172.038 33.7388 172.591 34.1488 173.688 34.1485L181.358 34.1465L181.863 32.0859L174.517 32.0878C174.365 32.0878 174.288 32.0401 174.288 31.9352C174.288 31.8971 174.279 31.8589 174.307 31.7921L174.992 29.035C175.04 28.8156 175.288 28.577 175.584 28.577L182.71 28.5751L183.224 26.5144Z" fill="#333333"/>
<path d="M193.849 26.5117L191.493 26.5123C190.338 26.5126 189.661 26.9993 188.918 27.8771L185.667 31.7892C185.515 31.98 185.333 32.085 185.057 32.085L184.914 32.0851L186.303 26.5136L184.281 26.5142L182.387 34.1463L184.257 34.1458C185.754 34.1454 186.47 33.859 187.385 32.7617L190.645 28.7924C190.769 28.6398 190.902 28.573 191.179 28.5729L191.322 28.5729L189.942 34.1443L191.955 34.1438L193.849 26.5117Z" fill="#333333"/>
<path d="M204.449 26.5089L202.092 26.5095C200.938 26.5098 200.261 26.9965 199.517 27.8743L196.267 31.7864C196.114 31.9772 195.933 32.0822 195.656 32.0823L195.513 32.0823L196.903 26.5109L194.881 26.5114L192.986 34.1435L194.856 34.143C196.354 34.1426 197.069 33.8563 197.984 32.759L201.245 28.7897C201.369 28.637 201.502 28.5702 201.779 28.5701L201.922 28.5701L200.542 34.1415L202.555 34.141L204.449 26.5089Z" fill="#333333"/>
<path d="M86.2893 16.2661L78.6482 16.2681C77.2936 16.2684 76.464 16.8887 76.1594 18.1289L75.1886 22.0308C75.1315 22.2598 75.103 22.4697 75.1031 22.6605C75.1036 23.4904 75.6571 23.9005 76.7541 23.9002L84.4239 23.8982L84.9283 21.8375L77.5829 21.8394C77.4303 21.8395 77.3539 21.7918 77.3539 21.6868C77.3538 21.6487 77.3443 21.6105 77.3729 21.5437L78.0581 18.7866C78.1057 18.5672 78.3536 18.3287 78.6493 18.3286L85.7754 18.3267L86.2893 16.2661Z" fill="#333333"/>
<path d="M97.1627 16.2632L87.3466 16.2658L85.4525 23.8979L87.5131 23.8974L88.8931 18.3355L94.5882 18.334L93.2081 23.8959L95.2687 23.8953L97.1627 16.2632Z" fill="#333333"/>
<path d="M107.825 18.693C107.901 18.3782 107.939 18.092 107.939 17.8344C107.938 16.7851 107.261 16.2606 105.906 16.261L100.716 16.2623C99.0279 16.2627 97.979 17.0739 97.5793 18.6957L96.894 21.4719C96.8179 21.7867 96.7799 22.0729 96.78 22.3114C96.7806 23.3703 97.4582 23.8948 98.8224 23.8944L104.012 23.8931C105.7 23.8926 106.74 23.0815 107.139 21.4692L107.825 18.693ZM105.325 18.3216C105.63 18.3216 105.745 18.3978 105.745 18.5886C105.745 18.6554 105.736 18.7222 105.717 18.8081L105.165 21.0118C105.041 21.4984 104.612 21.8324 104.001 21.8325L99.3745 21.8337C99.0979 21.8338 98.9642 21.7289 98.9641 21.519C98.9641 21.4523 98.9736 21.3759 99.0022 21.2901L99.5256 19.2008C99.6684 18.6379 100.088 18.323 100.699 18.3228L105.325 18.3216Z" fill="#333333"/>
<path d="M117.75 19.5585C118.188 17.8985 118.188 17.8032 118.188 17.4788C118.188 16.668 117.644 16.2579 116.547 16.2582L109.468 16.26L107.574 23.8921L109.635 23.8916L110.244 21.4207L115.262 21.4194C116.626 21.419 117.417 20.8083 117.75 19.5585ZM115.785 18.3189C115.909 18.3189 115.966 18.3284 115.966 18.4143C115.966 18.4524 115.975 18.5192 115.823 19.0057C115.775 19.187 115.585 19.3588 115.27 19.3589L110.758 19.36L111.015 18.3202L115.785 18.3189Z" fill="#333333"/>
<path d="M128.868 16.255L119.462 16.2574L118.948 18.3181L122.659 18.3171L121.279 23.8886L123.34 23.888L124.72 18.3166L128.354 18.3156L128.868 16.255Z" fill="#333333"/>
<path d="M139.462 16.2522L137.106 16.2528C135.952 16.2531 135.275 16.7398 134.531 17.6176L131.281 21.5297C131.128 21.7205 130.947 21.8255 130.67 21.8256L130.527 21.8256L131.917 16.2542L129.894 16.2547L128 23.8868L129.87 23.8863C131.368 23.8859 132.083 23.5996 132.998 22.5023L136.258 18.533C136.382 18.3803 136.516 18.3135 136.793 18.3134L136.936 18.3134L135.556 23.8848L137.568 23.8843L139.462 16.2522Z" fill="#333333"/>
<path d="M149.882 18.7965C150.111 17.8902 150.139 17.728 150.139 17.4609C150.139 16.6501 149.614 16.2496 148.574 16.2498L140.494 16.2519L138.6 23.884L146.68 23.8819C148.044 23.8816 148.826 23.2708 149.159 22.0115C149.464 20.924 149.454 20.8476 149.454 20.695C149.454 20.3707 149.311 20.1227 149.024 19.9606C149.473 19.6647 149.768 19.2831 149.882 18.7965ZM147.136 20.9055C147.27 20.9055 147.336 20.9436 147.337 21.0294C147.337 21.0581 147.327 21.0867 147.222 21.5446C147.156 21.764 146.946 21.9167 146.612 21.9168L141.146 21.9182L141.393 20.907L147.136 20.9055ZM147.764 18.2152C147.926 18.2151 148.003 18.2628 148.003 18.3487C148.003 18.3868 148.003 18.4345 147.898 18.8257C147.831 19.026 147.669 19.1692 147.364 19.1692L141.831 19.1707L142.069 18.2167L147.764 18.2152Z" fill="#333333"/>
<path d="M161.441 16.2465L159.38 16.247L158.733 18.8324L153.038 18.8339L153.685 16.2485L151.625 16.249L149.731 23.8811L151.791 23.8806L152.524 20.9041L158.219 20.9026L157.486 23.8791L159.547 23.8786L161.441 16.2465Z" fill="#333333"/>
<path d="M172.103 18.6763C172.179 18.3614 172.217 18.0752 172.217 17.8177C172.216 16.7683 171.539 16.2438 170.184 16.2442L164.995 16.2455C163.306 16.246 162.257 17.0571 161.857 18.6789L161.172 21.4551C161.096 21.7699 161.058 22.0561 161.058 22.2946C161.059 23.3535 161.736 23.878 163.1 23.8777L168.29 23.8763C169.978 23.8759 171.018 23.0647 171.418 21.4524L172.103 18.6763ZM169.603 18.3049C169.909 18.3048 170.023 18.3811 170.023 18.5719C170.023 18.6387 170.014 18.7054 169.995 18.7913L169.443 20.9951C169.319 21.4816 168.89 21.8156 168.279 21.8158L163.653 21.817C163.376 21.817 163.242 21.7121 163.242 21.5023C163.242 21.4355 163.252 21.3592 163.28 21.2733L163.804 19.184C163.947 18.6212 164.366 18.3062 164.977 18.3061L169.603 18.3049Z" fill="#333333"/>
<path d="M179.717 14.3338C179.641 14.62 179.317 15.202 178.992 15.2021L178.868 15.2021C178.611 15.2022 178.534 15.0973 178.534 14.8588C178.534 14.7157 178.553 14.5344 178.601 14.3341L177.485 14.3344C177.456 14.4775 177.437 14.6206 177.437 14.7637C177.438 15.2979 177.667 15.9465 178.43 15.9463L179.098 15.9461C180.09 15.9459 180.709 14.8964 180.833 14.3335L179.717 14.3338ZM183.314 16.2408L180.958 16.2414C179.804 16.2417 179.127 16.7284 178.383 17.6062L175.132 21.5183C174.98 21.7091 174.799 21.8141 174.522 21.8141L174.379 21.8142L175.769 16.2427L173.746 16.2433L171.852 23.8754L173.722 23.8749C175.22 23.8745 175.935 23.5881 176.85 22.4908L180.11 18.5215C180.234 18.3689 180.368 18.3021 180.645 18.302L180.788 18.302L179.408 23.8734L181.42 23.8729L183.314 16.2408Z" fill="#333333"/>
</svg>
